<?xml version="1.0" standalone="no"?>
<!DOCTYPE svg PUBLIC "-//W3C//DTD SVG 1.1//EN" "http://www.w3.org/Graphics/SVG/1.1/DTD/svg11.dtd" >
<svg xmlns="http://www.w3.org/2000/svg" xmlns:xlink="http://www.w3.org/1999/xlink" version="1.1">
<metadata></metadata>
<defs>
<font id="source_serif_proitalic" horiz-adv-x="511" >
<font-face units-per-em="1000" ascent="730" descent="-270" />
<missing-glyph horiz-adv-x="234" />
<glyph unicode="&#xfb01;" horiz-adv-x="569" d="M419 750q53 0 87 -21.5t40 -52.5q-10 -33 -42 -33q-22 0 -37.5 11.5t-41.5 43.5l-10 13q-152 -8 -187 -227q0 -2 -1 -5t-1 -5h230l44 13l13 -10l-71 -342q-9 -45 -9 -57q0 -10 6.5 -16t15.5 -6q35 0 96 72l24 -19q-43 -58 -81 -90t-86 -32q-22 0 -38 13.5t-16 37.5 q0 27 10 73l66 311l-212 4q-40 -253 -67 -391q-34 -175 -103 -236q-54 -49 -106 -49q-34 0 -60 17t-33 45q3 16 16 26t30 10q32 0 73 -41l12 -12q22 17 41 43q34 51 61 197q13 75 34.5 207.5t30.5 184.5h-104l8 38l104 9q0 2 0.5 5t0.5 4q22 134 92.5 200.5t170.5 66.5z" />
<glyph unicode="&#xfb02;" horiz-adv-x="560" d="M386 750q57 0 92 -39l73 29l11 -8l-120 -595q-9 -40 -9 -58q0 -11 7.5 -17t17.5 -6q31 0 94 72l24 -19q-27 -37 -47 -59.5t-52 -42.5t-65 -20q-25 0 -41 15t-16 43q0 17 10 67l72 365q18 87 31 171q-4 -1 -10 -1q-21 0 -36.5 11.5t-40.5 41.5l-14 18q-106 -46 -139 -233 q0 -2 -1 -5.5t-1 -5.5h129l-8 -53l-129 4q-3 -15 -27.5 -165t-39.5 -225q-34 -175 -103 -236q-54 -49 -106 -49q-34 0 -60 17t-33 45q3 16 16 26t30 10q32 0 73 -41l12 -12q22 17 41 43q34 51 61 197q13 74 33.5 205t30.5 187h-103l8 38l103 9q0 2 1 5t1 4q23 127 85 197 t145 70z" />
<glyph unicode="&#xfb03;" horiz-adv-x="834" d="M386 750q41 0 72 -21.5t37 -49.5q-10 -32 -37 -32q-21 0 -36.5 11.5t-40.5 41.5l-14 18q-106 -46 -139 -233q0 -2 -1 -5.5t-1 -5.5h189h5q0 2 0.5 5t0.5 4q22 134 92.5 200.5t170.5 66.5q53 0 87 -21.5t40 -52.5q-10 -33 -42 -33q-22 0 -37.5 11.5t-41.5 43.5l-10 13 q-152 -8 -187 -227q-1 -2 -1 -5t-1 -5h230l44 13l13 -10l-71 -342q-9 -45 -9 -57q0 -10 6.5 -16t15.5 -6q34 0 96 72l24 -19q-43 -58 -81 -90t-86 -32q-23 0 -38.5 13.5t-15.5 37.5q0 27 10 73l66 311l-212 4q-40 -253 -67 -391q-34 -175 -103 -236q-54 -49 -106 -49 q-34 0 -60 17t-33 45q3 16 16 26t30 10q32 0 73 -41l12 -12q22 17 41 43q34 51 61 197q13 75 34.5 207.5t30.5 184.5h-194q-8 -44 -20.5 -123.5t-24 -146t-22.5 -122.5q-34 -175 -103 -236q-54 -49 -106 -49q-34 0 -60 17t-33 45q3 16 16 26t30 10q32 0 73 -41l12 -12 q22 17 41 43q34 51 61 197q13 74 33.5 205t30.5 187h-103l8 38l103 9q0 2 1 5t1 4q23 127 85 197t145 70z" />
<glyph unicode="&#xfb04;" horiz-adv-x="825" d="M386 750q41 0 72 -21.5t37 -49.5q-10 -32 -37 -32q-21 0 -36.5 11.5t-40.5 41.5l-14 18q-106 -46 -139 -233q0 -2 -1 -5.5t-1 -5.5h189h4q1 2 1 5t1 4q23 127 85 197t145 70q57 0 92 -39l73 29l11 -8l-120 -595q-9 -40 -9 -58q0 -11 7.5 -17t17.5 -6q31 0 94 72l24 -19 q-27 -37 -47 -59.5t-52 -42.5t-65 -20q-25 0 -41 15t-16 43q0 17 10 67l72 365q18 87 31 171q-4 -1 -10 -1q-21 0 -36.5 11.5t-40.5 41.5l-14 18q-106 -46 -139 -233q-1 -2 -1 -5.5t-1 -5.5h129l-8 -53l-129 4q-3 -15 -27.5 -165t-39.5 -225q-34 -175 -103 -236 q-54 -49 -106 -49q-34 0 -60 17t-33 45q3 16 16 26t30 10q32 0 73 -41l12 -12q22 17 41 43q34 51 61 197q13 74 33.5 205t30.5 187h-193q-8 -44 -20.5 -123.5t-24 -146t-22.5 -122.5q-34 -175 -103 -236q-54 -49 -106 -49q-34 0 -60 17t-33 45q3 16 16 26t30 10q32 0 73 -41 l12 -12q22 17 41 43q34 51 61 197q13 74 33.5 205t30.5 187h-103l8 38l103 9q0 2 1 5t1 4q23 127 85 197t145 70z" />
<glyph horiz-adv-x="0" />
<glyph horiz-adv-x="333" />
<glyph unicode=" "  horiz-adv-x="234" />
<glyph unicode="&#x09;" horiz-adv-x="234" />
<glyph unicode="&#xa0;" horiz-adv-x="234" />
<glyph unicode="!" horiz-adv-x="290" d="M133 198l19 157q19 194 29 252q15 77 64 77q45 0 45 -46q0 -8 -1 -16.5t-4 -22t-6 -26.5t-9.5 -35t-12.5 -42.5t-16.5 -55t-20 -65.5t-25 -81.5t-29.5 -95.5h-33zM58 46q0 29 21 49.5t49 20.5q26 0 41.5 -17.5t15.5 -42.5q0 -28 -21 -48t-50 -20q-24 0 -40 16.5t-16 41.5 z" />
<glyph unicode="&#x22;" horiz-adv-x="423" d="M225 736q38 0 38 -47q0 -32 -71 -256h-33l1 70q0 111 12 176q5 31 17.5 44t35.5 13zM390 736q38 0 38 -47q0 -32 -71 -256h-33l1 70q0 111 12 176q5 31 17.5 44t35.5 13z" />
<glyph unicode="#" horiz-adv-x="555" d="M209 261h168l35 132h-168zM92 0l49 180h-96l16 81h102l35 132h-97l16 81h103l48 176h46l-48 -176h168l48 176h46l-48 -176h90l-16 -81h-96l-35 -132h91l-16 -81h-97l-49 -180h-46l49 180h-168l-49 -180h-46z" />
<glyph unicode="$" d="M184 -115l21 103q-73 4 -110.5 37.5t-42.5 102.5q12 35 42 35q22 0 34 -15t15 -53l4 -58q33 -11 66 -12l53 261l-29 18q-55 35 -80.5 73.5t-25.5 93.5q0 77 55.5 131t153.5 58l18 90h39l-19 -91q131 -10 139 -128q-7 -41 -44 -41q-45 0 -45 60v59q-24 8 -58 10l-52 -260 l14 -9q69 -43 96 -79t27 -95q0 -77 -58 -130.5t-154 -58.5l-21 -102h-38zM383 148q0 40 -20 64t-64 52l-48 -238q63 4 97.5 37.5t34.5 84.5zM202 501q0 -46 19 -70t62 -50l48 238q-60 -4 -94.5 -34.5t-34.5 -83.5z" />
<glyph unicode="%" horiz-adv-x="870" d="M230 -15l-34 25l497 656l33 -26zM190 246q-53 0 -83.5 35t-30.5 101q0 117 55 197.5t131 80.5q53 0 83.5 -36t30.5 -104q0 -117 -55.5 -195.5t-130.5 -78.5zM194 275q42 0 77.5 80.5t35.5 178.5q0 95 -49 95q-41 0 -76.5 -75t-35.5 -178q0 -101 48 -101zM649 -8 q-53 0 -83.5 35t-30.5 101q0 117 55 197.5t131 80.5q53 0 83.5 -36t30.5 -104q0 -117 -55.5 -195.5t-130.5 -78.5zM653 21q42 0 77.5 80.5t35.5 178.5q0 95 -49 95q-41 0 -76.5 -75t-35.5 -178q0 -101 48 -101z" />
<glyph unicode="&#x26;" horiz-adv-x="694" d="M320 -13q-115 0 -184.5 56.5t-69.5 157.5q0 74 43 136.5t120 83.5q-23 37 -23 81q0 75 57 129t151 54q50 0 87 -21.5t47 -63.5q-9 -31 -38 -31q-35 0 -55 43l-16 37q-8 1 -25 1q-69 0 -108 -38t-39 -106q0 -42 20 -77h6q96 0 96 -47q0 -37 -39 -37q-56 0 -97 44 q-57 -22 -84.5 -68t-27.5 -102q0 -77 55 -121.5t134 -44.5q78 0 126 30.5t48 79.5q0 82 -111 89l7 48q103 1 160.5 46.5t95.5 143.5l67 -30q-36 -84 -93.5 -127t-144.5 -55q65 -28 65 -111q0 -81 -63 -130.5t-167 -49.5z" />
<glyph unicode="'" horiz-adv-x="258" d="M225 736q38 0 38 -47q0 -32 -71 -256h-33l1 70q0 111 12 176q5 31 17.5 44t35.5 13z" />
<glyph unicode="(" horiz-adv-x="375" d="M234 -211q-152 186 -152 386q0 157 82.5 294t244.5 245l23 -31q-139 -112 -205.5 -234t-66.5 -277q0 -99 25.5 -183t82.5 -179z" />
<glyph unicode=")" horiz-adv-x="375" d="M175 714q152 -186 152 -386q0 -157 -82.5 -294t-244.5 -245l-23 31q139 112 205.5 234t66.5 277q0 99 -25.5 183t-82.5 179z" />
<glyph unicode="*" horiz-adv-x="480" d="M282 750q31 0 36 -34q3 -26 6 -152q14 10 33.5 24.5t29 21.5t23 16.5t20.5 14t15.5 9t14.5 6t12 1.5q30 0 30 -34q0 -7 -2.5 -13t-9.5 -11.5t-14.5 -9.5t-23 -10t-29.5 -10.5t-39 -13t-46 -16.5q22 -16 48.5 -35t38.5 -27.5t25 -19.5t18.5 -18.5t6.5 -15.5q2 -13 -6 -24 t-20 -13q-20 -2 -39.5 17.5t-66.5 81.5q-16 21 -25 33q-30 -98 -46.5 -132.5t-39.5 -34.5q-29 0 -29 31q0 8 3 16.5t11.5 22t16.5 25.5t25.5 37t32.5 47q-133 -3 -158 4q-26 8 -26 32q0 33 31 33q20 0 158 -39q-48 136 -48 156q0 14 8 24t25 10z" />
<glyph unicode="+" horiz-adv-x="530" d="M253 92v211h-194v53h194v207h57v-207h193v-53h-193v-211h-57z" />
<glyph unicode="," horiz-adv-x="300" d="M15 -160l-15 28q71 36 118 107l-28 33q-18 20 -18 51q0 25 15.5 41.5t46.5 16.5q22 0 46 -12q11 -17 11 -40q0 -70 -50.5 -132t-125.5 -93z" />
<glyph unicode="-" horiz-adv-x="311" d="M56 219v64h231v-64h-231z" />
<glyph unicode="." horiz-adv-x="300" d="M122 -10q-26 0 -42.5 16t-16.5 41q0 29 21 49t50 20q26 0 42 -16.5t16 -40.5q0 -30 -20 -49.5t-50 -19.5z" />
<glyph unicode="/" horiz-adv-x="329" d="M-89 -160l445 870h64l-446 -870h-63z" />
<glyph unicode="0" d="M224 -9q-82 0 -126.5 58t-44.5 163q0 186 83.5 315t200.5 129q79 0 125.5 -59t46.5 -174q0 -174 -86.5 -303t-198.5 -129zM231 33q73 0 135.5 119.5t62.5 283.5q0 177 -97 177q-73 0 -136.5 -117.5t-63.5 -277.5q0 -100 25 -142.5t74 -42.5z" />
<glyph unicode="1" d="M176 603l211 53l11 -10l-33 -143l-59 -292q-5 -24 -15.5 -78t-16.5 -83l149 -15l-8 -35h-362l7 35l140 14l106 525l-138 -11z" />
<glyph unicode="2" d="M41 0l13 64l147 139q134 126 178 184.5t44 114.5q0 57 -30 87t-86 30q-45 0 -78 -20l-7 -61q-4 -42 -16.5 -58t-34.5 -16q-15 0 -26.5 11t-13.5 26q18 83 66 121t130 38q87 0 131 -42.5t44 -111.5q0 -24 -5 -45t-19 -43.5t-26.5 -39.5t-40 -43.5t-46.5 -43.5t-59 -52 t-65 -57l-116 -105h311l-16 -77h-379z" />
<glyph unicode="3" d="M234 -13q-173 0 -173 173q15 26 41 25q41 -1 41 -60v-76q43 -22 92 -22q66 0 107.5 41t41.5 117q0 124 -130 124h-34l9 43h37q63 0 108 41t45 117q0 54 -28.5 81.5t-72.5 27.5q-47 0 -84 -17l-7 -66q-7 -59 -47 -59q-15 0 -28 10t-14 24q32 149 194 149q77 0 120.5 -41 t43.5 -107q0 -70 -44 -116t-117 -65q131 -29 131 -151q0 -91 -67.5 -142t-164.5 -51z" />
<glyph unicode="4" d="M497 187h-109l-42 -206h-69l42 206h-289l11 51l390 417h53l-83 -407h109zM100 248h232l65 316z" />
<glyph unicode="5" d="M216 -13q-156 0 -162 158q12 29 44 29q23 0 32.5 -16.5t12.5 -59.5l3 -58q25 -14 68 -14q74 0 121 47.5t47 132.5q0 68 -32.5 105.5t-93.5 37.5q-59 0 -94 -19l-27 6l74 311h313l-18 -81h-272l-44 -190q44 13 88 13q91 0 139 -47t48 -128q0 -108 -70.5 -167.5 t-176.5 -59.5z" />
<glyph unicode="6" d="M159 211q0 -185 117 -185q51 0 87.5 48.5t36.5 132.5q0 66 -27.5 94.5t-83.5 28.5q-73 0 -123 -35q-7 -38 -7 -84zM261 -13q-86 0 -134 59.5t-48 166.5q0 179 124.5 309t328.5 136l2 -32q-145 -15 -237.5 -94t-123.5 -201q72 56 157 56q68 0 108.5 -46t40.5 -121 q0 -105 -67 -169t-151 -64z" />
<glyph unicode="7" d="M82 10l376 562h-331l15 75h391l-10 -51l-358 -596h-76z" />
<glyph unicode="8" d="M205 497q0 -43 22.5 -73.5t79.5 -67.5q63 33 88 69t25 88q0 51 -24 80.5t-70 29.5q-54 0 -87.5 -34.5t-33.5 -91.5zM233 -11q-78 0 -122.5 36.5t-44.5 102.5q0 60 44 112t116 81q-91 74 -91 158q0 76 57 128.5t140 52.5q71 0 114 -39.5t43 -99.5q0 -66 -34.5 -107 t-120.5 -77q59 -42 84 -80.5t25 -90.5q0 -79 -60 -128t-150 -49zM135 139q0 -55 27.5 -85.5t77.5 -30.5q58 0 93.5 32.5t35.5 88.5q0 46 -23 77.5t-95 80.5q-116 -60 -116 -163z" />
<glyph unicode="9" d="M183 448q0 -63 33.5 -99.5t92.5 -36.5q48 0 114 33q10 43 10 96q0 85 -28.5 131.5t-84.5 46.5q-57 0 -97 -50t-40 -121zM77 24q273 92 337 286q-72 -45 -138 -45q-76 0 -122 47t-46 121q0 96 65.5 161t157.5 65q85 0 131.5 -58.5t46.5 -159.5q0 -162 -112 -282.5 t-311 -172.5z" />
<glyph unicode=":" horiz-adv-x="301" d="M120 -10q-26 0 -42.5 16t-16.5 41q0 29 21 49t50 20q26 0 42 -16.5t16 -40.5q0 -30 -20 -49.5t-50 -19.5zM197 353q-26 0 -42.5 16t-16.5 41q0 29 21 49t50 20q26 0 42 -16.5t16 -40.5q0 -30 -20 -49.5t-50 -19.5z" />
<glyph unicode=";" horiz-adv-x="301" d="M197 353q-26 0 -42.5 16t-16.5 41q0 29 21 49t50 20q26 0 42 -16.5t16 -40.5q0 -30 -20 -49.5t-50 -19.5zM20 -160l-15 28q71 36 118 107l-28 33q-18 20 -18 51q0 25 15.5 41.5t46.5 16.5q22 0 46 -12q11 -17 11 -40q0 -70 -50.5 -132t-125.5 -93z" />
<glyph unicode="&#x3c;" horiz-adv-x="530" d="M86 307v45l362 211l29 -50l-327 -183l327 -183l-29 -50z" />
<glyph unicode="=" horiz-adv-x="530" d="M503 203h-444v53h444v-53zM503 403h-444v53h444v-53z" />
<glyph unicode="&#x3e;" horiz-adv-x="530" d="M477 353v-45l-362 -211l-29 50l327 183l-327 183l29 50z" />
<glyph unicode="?" horiz-adv-x="444" d="M76 45q0 28 20.5 49t47.5 21q26 0 42 -17t16 -43q0 -27 -20.5 -47.5t-45.5 -20.5q-26 0 -43 16.5t-17 41.5zM133 184q4 73 12 107t27 55q38 40 128 94q102 61 102 130q0 36 -24 55.5t-68 19.5q-24 0 -52 -4l-31 -75q-9 -22 -20.5 -31.5t-31.5 -9.5q-16 0 -26 11t-11 28 q13 51 58 86t122 35q70 0 112 -31.5t42 -91.5q0 -52 -30 -88.5t-112 -88.5q-100 -62 -120 -82q-17 -17 -25.5 -42.5t-16.5 -81.5z" />
<glyph unicode="@" horiz-adv-x="872" d="M335 185q0 -81 53 -81q49 0 128 86l48 222q-29 17 -55 17q-56 0 -115 -72.5t-59 -171.5zM580 43q-86 0 -74 100q-87 -100 -156 -100q-35 0 -60 26.5t-25 77.5q0 75 44.5 156t109.5 133t121 52q29 0 51 -24l41 33l16 -8l-73 -327q-8 -39 -1 -53t33 -14q24 0 54 15t60 44 t50 82t20 119q0 119 -69 192t-185 73q-169 0 -290 -129.5t-121 -316.5q0 -136 76 -209.5t214 -73.5q84 0 157 27l11 -31q-84 -42 -191 -42q-148 0 -237.5 85.5t-89.5 229.5q0 143 65.5 258.5t174 178.5t236.5 63q151 0 227 -86.5t76 -220.5q0 -75 -28 -137t-70 -98 t-86 -55.5t-81 -19.5z" />
<glyph unicode="A" horiz-adv-x="676" d="M-29 0l8 40l83 12l343 618h58l88 -619l88 -11l-8 -40h-265l8 40l87 10l-26 193h-218l-101 -190l87 -13l-8 -40h-224zM241 289h188l-38 283z" />
<glyph unicode="B" horiz-adv-x="624" d="M122 629l8 41h255q95 0 144.5 -41t49.5 -105q0 -61 -44 -106.5t-115 -64.5q71 -16 110.5 -62t39.5 -105q0 -85 -77 -135.5t-200 -50.5h-277l8 40l86 11l58 309q24 129 45 258zM243 310q-32 -176 -46 -264h86q100 0 147 42t47 111q0 60 -43.5 94t-113.5 34h-74zM372 623 h-70l-47 -250h55q91 0 136.5 38t45.5 99q0 51 -30.5 82t-89.5 31z" />
<glyph unicode="C" horiz-adv-x="593" d="M330 -15q-125 0 -198.5 81t-73.5 215q0 166 112.5 285t269.5 119q87 0 169 -53l-23 -140h-57v123q-46 20 -98 20q-119 0 -200.5 -103t-81.5 -247q0 -120 61 -185t153 -65q41 0 89 15l41 125h60l-28 -145q-104 -45 -195 -45z" />
<glyph unicode="D" horiz-adv-x="701" d="M122 629l8 41h274q129 0 205 -74t76 -202q0 -96 -33 -173t-89 -124t-125.5 -72t-147.5 -25h-274l8 40l86 11l58 309q24 129 45 258zM243 310q-32 -176 -46 -264h107q91 0 158 53.5t97 130.5t31 164q1 111 -59 170t-168 59h-61z" />
<glyph unicode="E" horiz-adv-x="587" d="M122 629l8 41h462l-24 -178h-50v127h-217l-48 -254h155l34 96h42l-45 -237h-42l3 95h-155l-2 -9q-23 -126 -45 -260h260l45 128h51l-39 -178h-499l8 40l86 11l58 309q24 129 45 258z" />
<glyph unicode="F" horiz-adv-x="550" d="M122 629l8 41h475l-29 -178h-50v127h-225l-48 -254h154l34 96h42l-44 -247h-42l3 105h-155l-2 -9q-24 -129 -45 -258l96 -12l-8 -40h-270l8 40l85 10l59 310q24 129 45 258z" />
<glyph unicode="G" horiz-adv-x="655" d="M58 277q0 174 112.5 291t269.5 117q58 0 100 -11.5t88 -41.5l-23 -140h-56v123q-51 20 -109 20q-128 0 -209.5 -102.5t-81.5 -249.5q0 -116 66 -182t158 -66q48 0 90 13l8 42q2 8 30 176l-100 12l7 40h260l-7 -40l-72 -9l-44 -239q-100 -45 -198 -45q-133 0 -211 80.5 t-78 211.5z" />
<glyph unicode="H" horiz-adv-x="764" d="M527 629l8 41h265l-8 -41l-86 -10l-58 -309q-24 -129 -45 -258l92 -12l-8 -40h-265l8 40l85 10l51 270h-321l-2 -10q-25 -132 -45 -259l92 -11l-8 -40h-265l8 40l84 10l59 310q32 172 46 258l-92 11l8 41h265l-8 -41l-86 -10l-47 -253h321q30 168 44 252z" />
<glyph unicode="I" horiz-adv-x="358" d="M122 629l8 41h265l-8 -41l-86 -10l-58 -309q-23 -122 -45 -259l91 -11l-8 -40h-265l8 40l85 10l59 310q24 129 45 258z" />
<glyph unicode="J" horiz-adv-x="404" d="M176 629l8 41h275l-8 -41l-91 -11l-59 -355q-17 -107 -43 -163q-29 -68 -84 -106t-110 -38q-37 0 -62.5 13t-29.5 38q6 22 24.5 34t43.5 12t83 -43q56 42 75 130q4 21 8 46.5t11.5 75.5t15.5 98q35 227 39 258z" />
<glyph unicode="K" horiz-adv-x="663" d="M484 629l9 41h220l-8 -41l-99 -13l-227 -209l191 -356l82 -11l-6 -40h-250l5 40l77 10l-160 301l-81 -74q-22 -115 -39 -226l90 -11l-8 -40h-265l9 40l85 10l59 310q24 129 45 258l-91 11l8 41h265l-8 -41l-86 -10l-52 -278l300 277z" />
<glyph unicode="L" horiz-adv-x="568" d="M122 629l8 41h275l-8 -41l-96 -12l-58 -307q-23 -126 -45 -260h255l48 138h56l-36 -188h-505l8 40l86 11l58 309q24 129 45 258z" />
<glyph unicode="M" horiz-adv-x="927" d="M-7 0l8 40l92 13l133 566l-86 10l8 41h185l115 -541l319 541h176l-4 -41l-95 -12l-44 -305q-9 -66 -34 -259l90 -11l-5 -42h-260l6 42l81 10l77 522l-335 -573h-29l-130 566l-122 -514l92 -13l-8 -40h-230z" />
<glyph unicode="N" horiz-adv-x="727" d="M548 629l8 41h236l-8 -41l-80 -13l-116 -626h-31l-315 557l-94 -494l100 -13l-6 -40h-233l9 40l82 12l105 560l-4 7l-85 10l9 41h153l291 -524l86 470z" />
<glyph unicode="O" horiz-adv-x="660" d="M302 -14q-107 0 -171.5 73.5t-64.5 199.5q0 175 101 300t248 125q109 0 174 -76t65 -199q0 -114 -45.5 -211t-126.5 -154.5t-180 -57.5zM316 36q105 0 177 108t72 267q0 106 -40 164.5t-122 58.5q-104 0 -176 -108.5t-72 -268.5q0 -103 40 -162t121 -59z" />
<glyph unicode="P" horiz-adv-x="563" d="M343 623h-41l-59 -313l-1 -4h59q93 0 142 48t49 129q0 69 -38 104.5t-111 35.5zM122 629l8 41h228q111 0 169 -47.5t58 -128.5q0 -104 -74.5 -169t-207.5 -65h-69q-18 -98 -36 -208l96 -12l-8 -40h-270l8 40l85 10l59 310q24 129 45 258z" />
<glyph unicode="Q" horiz-adv-x="660" d="M316 36q105 0 177 108t72 267q0 106 -40 164.5t-122 58.5q-104 0 -176 -108.5t-72 -268.5q0 -103 40 -162t121 -59zM496 -249q-103 0 -165.5 65.5t-70.5 172.5q-90 14 -142 85.5t-52 184.5q0 175 101 300t248 125q109 0 174 -76t65 -199q0 -162 -88 -282t-222 -138 q6 -83 49.5 -129t119.5 -46q69 0 126 29l15 -29q-72 -63 -158 -63z" />
<glyph unicode="R" horiz-adv-x="646" d="M386 623h-84l-50 -268h71q184 0 184 158q0 53 -31 81.5t-90 28.5zM122 629l8 41h265q94 0 149 -41.5t55 -117.5t-51 -128t-151 -67q28 -13 46.5 -40t36.5 -78l51 -145l106 -13l-8 -40q-46 -10 -84 -10q-44 0 -69 16t-38 54l-51 155q-20 59 -40 77t-62 18h-42 q-24 -129 -45 -258l96 -12l-8 -40h-270l8 40l85 10l59 310q24 129 45 258z" />
<glyph unicode="S" horiz-adv-x="494" d="M34 30l19 142h57l12 -125q41 -12 85 -12q72 0 109.5 33t37.5 87q0 37 -20 69.5t-83 80.5q-73 55 -101 101t-28 96q0 80 61.5 131.5t156.5 51.5q90 0 166 -45l-23 -140h-59l-6 123q-32 12 -66 12q-154 0 -154 -111q0 -40 22 -72.5t76 -73.5q80 -63 109 -107.5t29 -93.5 q0 -87 -61 -139.5t-162 -52.5q-46 0 -96 12.5t-81 32.5z" />
<glyph unicode="T" horiz-adv-x="569" d="M76 491l36 179h522l-29 -179h-51v128h-144l-58 -309q-24 -129 -45 -258l101 -12l-8 -40h-285l8 40l97 11l58 309q23 122 45 259h-150l-46 -128h-51z" />
<glyph unicode="U" horiz-adv-x="712" d="M528 629l8 41h242l-8 -41l-86 -12l-65 -343q-29 -153 -102.5 -221t-188.5 -68q-101 0 -154.5 50t-53.5 144q0 38 13 107l14 74q24 129 45 258l-92 11l8 41h265l-8 -41l-87 -11l-62 -336q-11 -57 -11 -97q0 -61 38.5 -95.5t95.5 -34.5q105 0 154.5 51t76.5 192l61 318z " />
<glyph unicode="V" horiz-adv-x="605" d="M483 629l8 41h224l-8 -41l-88 -13l-335 -626h-43l-101 629l-78 10l8 41h265l-8 -41l-96 -12l71 -495l264 495z" />
<glyph unicode="W" horiz-adv-x="872" d="M750 629l9 41h223l-8 -41l-82 -12l-287 -627h-40l-69 534l-259 -534h-41l-56 629l-78 10l8 41h261l-8 -41l-94 -12l28 -484l233 484l-96 12l8 41h263l-8 -41l-93 -11l54 -491l221 489z" />
<glyph unicode="X" horiz-adv-x="661" d="M471 629l7 41h242l-7 -41l-92 -12l-218 -260l132 -305l97 -12l-8 -40h-271l9 40l82 9l-104 239l-186 -235l95 -13l-7 -40h-244l7 40l90 11l228 276l-127 292l-80 10l8 41h266l-9 -41l-92 -11l96 -222l178 220z" />
<glyph unicode="Y" horiz-adv-x="554" d="M62 629l8 41h265l-8 -41l-88 -11l91 -289l186 287l-84 13l8 41h223l-8 -41l-90 -13l-222 -338q-20 -107 -39 -226l101 -12l-8 -40h-285l8 40l96 10l43 230l-117 339z" />
<glyph unicode="Z" horiz-adv-x="537" d="M89 491l34 179h466l-7 -36l-467 -584h300l45 128h59l-35 -178h-483l7 35l465 584h-281l-45 -128h-58z" />
<glyph unicode="[" horiz-adv-x="325" d="M35 -159q23 103 65 317l46 240q33 163 59 317h189l-8 -40l-116 -13q-29 -141 -53 -264l-46 -240q-39 -200 -50 -264l111 -13l-8 -40h-189z" />
<glyph unicode="\" horiz-adv-x="313" d="M258 -160h-57l-89 870h57z" />
<glyph unicode="]" horiz-adv-x="325" d="M334 715q-23 -103 -65 -317l-46 -240q-33 -163 -59 -317h-189l8 40l116 13q29 141 53 264l46 240q39 200 50 264l-111 13l8 40h189z" />
<glyph unicode="^" horiz-adv-x="530" d="M112 243l147 238h63l147 -238l-45 -33l-134 212l-134 -212z" />
<glyph unicode="_" d="M12 -64v64h431v-64h-431z" />
<glyph unicode="`" horiz-adv-x="400" d="M368 549l-23 -15q-20 24 -59.5 71t-59.5 71q-21 25 -21 51q0 15 11.5 25t26.5 10q31 0 51 -45q13 -28 37 -84t37 -84z" />
<glyph unicode="a" horiz-adv-x="522" d="M123 146q0 -90 60 -90q55 0 143 96l54 250q-33 19 -61 19q-54 0 -110 -58q-86 -90 -86 -217zM363 -13q-22 0 -37 15t-15 43q0 29 4 53q-98 -111 -175 -111q-40 0 -67.5 30t-27.5 88q0 84 50 174.5t123 149t136 58.5q32 0 57 -27l46 37l18 -9l-80 -353q-9 -38 -9 -57 q0 -22 24 -22q39 0 98 72l24 -19q-34 -51 -78.5 -86.5t-90.5 -35.5z" />
<glyph unicode="b" horiz-adv-x="494" d="M163 104q0 -54 50 -54q61 0 118 54q41 39 65.5 99t24.5 121q0 47 -16.5 71.5t-44.5 24.5q-62 0 -162 -108l-15 -69q-20 -95 -20 -139zM169 -13q-35 0 -59 22.5t-24 60.5t23 157l85 427l-99 7l5 29l173 50l11 -8l-77 -373q45 59 99 93.5t99 34.5q40 0 65.5 -30t25.5 -93 q0 -83 -47.5 -171t-124.5 -147t-155 -59z" />
<glyph unicode="c" horiz-adv-x="407" d="M204 -13q-68 0 -109 48t-41 139q0 124 80 218.5t177 94.5q89 0 108 -73q-6 -35 -42 -35q-27 0 -59 36l-30 34q-66 -23 -112.5 -98t-46.5 -166q0 -63 30 -96t81 -33q62 0 122 73l23 -18q-31 -54 -81 -89t-100 -35z" />
<glyph unicode="d" horiz-adv-x="524" d="M124 151q0 -47 17.5 -71t45.5 -24q56 0 146 102l48 239q-28 24 -61 24q-65 0 -120 -62q-35 -38 -55.5 -93.5t-20.5 -114.5zM402 135q-8 -40 -8 -57q0 -10 7 -16t16 -6q41 0 98 72l24 -19q-82 -122 -168 -122q-25 0 -40.5 13.5t-15.5 38.5q-2 23 7 66q-46 -54 -95.5 -86 t-89.5 -32q-39 0 -64.5 31t-25.5 95q0 81 47 169t118.5 146.5t137.5 58.5q26 0 49 -15l38 182l-101 7l4 29l171 50l12 -8z" />
<glyph unicode="e" horiz-adv-x="407" d="M293 444q-50 0 -106 -70.5t-63 -159.5q116 34 170.5 80t54.5 91q0 27 -15.5 43t-40.5 16zM205 -13q-69 0 -110 46.5t-41 139.5q0 122 78.5 218t182.5 96q49 0 74.5 -24t25.5 -68q0 -57 -67.5 -116t-223.5 -104q6 -119 103 -119q77 0 135 73l23 -18q-34 -55 -81 -89.5 t-99 -34.5z" />
<glyph unicode="f" horiz-adv-x="294" d="M370 750q43 0 75 -22t38 -51q-10 -34 -39 -34q-21 0 -37 12t-42 43l-16 19q-90 -40 -121 -232q0 -2 -1 -5.5t-1 -5.5h129l-8 -53l-129 4q-52 -314 -67 -390q-34 -175 -103 -236q-54 -49 -106 -49q-34 0 -60 17t-33 45q3 16 16 26t30 10q32 0 73 -41l12 -12q22 17 41 43 q34 51 61 197q31 171 65 392h-104l8 38l104 9l1 9q12 78 38 134t58 83t61 38.5t57 11.5z" />
<glyph unicode="g" horiz-adv-x="486" d="M239 187q48 1 75 44t27 122q0 47 -22.5 75t-54.5 27q-51 -1 -77.5 -44.5t-26.5 -115.5q0 -53 20 -81t59 -27zM83 290q0 82 55.5 139.5t133.5 57.5q48 0 81 -24.5t43 -69.5q25 105 93 105q19 0 30 -6q9 -11 9 -21q0 -28 -22 -41t-77 -29q-9 -21 -17 -59q-22 -93 -70 -140 t-111 -47q-45 0 -77 15q-25 -30 -25 -54q0 -15 12.5 -28.5t39.5 -16.5l99 -12q147 -19 147 -109q0 -80 -83 -135.5t-206 -55.5q-73 0 -118 27t-45 79q0 43 36 84t90 67q-44 21 -44 66q0 49 75 102q-49 35 -49 106zM53 -102q0 -43 34 -67.5t95 -24.5q80 0 128 29t48 77 q0 31 -27.5 52t-99.5 29l-80 9q-12 2 -17 3q-42 -27 -61.5 -52t-19.5 -55z" />
<glyph unicode="h" horiz-adv-x="544" d="M72 -8l-10 8l97 477q18 91 33 178l-95 6l4 29l173 50l10 -8l-72 -356q50 49 106.5 80t99.5 31q65 0 65 -69q0 -28 -17 -98l-45 -185q-13 -52 -13 -58q0 -21 20 -21q40 0 98 72l24 -19q-33 -51 -79 -86.5t-93 -35.5q-24 0 -37.5 11.5t-13.5 31.5q0 15 16 81l43 176 q16 68 16 87q0 46 -35 46q-56 0 -164 -87l-26 -123q-23 -117 -38 -210z" />
<glyph unicode="i" horiz-adv-x="305" d="M90 38q0 23 11 73l60 290l-99 6l4 29l170 51l13 -10l-71 -342q-9 -45 -9 -57q0 -10 6.5 -16t15.5 -6q36 0 96 72l25 -19q-43 -57 -81.5 -89.5t-86.5 -32.5q-22 0 -38 13.5t-16 37.5zM237 623q-24 0 -39 16t-15 43q0 25 18 43.5t41 18.5q24 0 39 -15.5t15 -42.5 q0 -24 -18 -43.5t-41 -19.5z" />
<glyph unicode="j" horiz-adv-x="260" d="M237 623q-24 0 -39 16t-15 43q0 25 18 43.5t41 18.5q24 0 39 -15.5t15 -42.5q0 -24 -18 -43.5t-41 -19.5zM-62 -248l-8 28q57 24 81 54q56 71 82 214l68 353l-98 6l3 29l169 51l13 -10l-88 -454q-30 -145 -121 -222q-47 -40 -101 -49z" />
<glyph unicode="k" horiz-adv-x="472" d="M61 0l96 477q18 91 33 178l-95 6l4 29l173 50l6 -8l-90 -457l266 207q16 -1 26.5 -13t10.5 -28q0 -24 -52 -52l-243 -134l23 -5q75 -14 112 -95l29 -63q16 -34 29.5 -45t38.5 -13l51 -4l-5 -30q-39 -13 -71 -13q-40 0 -64.5 15.5t-44.5 64.5l-32 78q-18 42 -33 59.5 t-41 24.5l-9 3l-4 -22q-14 -70 -38 -210l-66 -8z" />
<glyph unicode="l" horiz-adv-x="279" d="M130 -13q-25 0 -40.5 15t-15.5 43q0 14 9 67l72 365q20 99 32 178l-94 6l4 29l172 50l11 -8l-120 -595q-9 -40 -9 -58q0 -11 7.5 -17t17.5 -6q32 0 95 72l23 -19q-27 -37 -46.5 -59.5t-52 -42.5t-65.5 -20z" />
<glyph unicode="m" horiz-adv-x="818" d="M652 -13q-24 0 -37.5 11.5t-13.5 31.5q0 15 16 81l43 176q16 68 16 87q0 46 -35 46q-49 0 -155 -88l-26 -122q-18 -78 -42 -210l-65 -8l-10 8l69 326q8 45 8 51q0 43 -35 43q-57 0 -165 -89l-27 -121q-11 -50 -40 -210l-67 -8l-10 8l85 401l-99 6l4 29l170 51l13 -10 l-21 -103q51 50 107.5 81.5t101.5 31.5q63 0 63 -69q0 -17 -5 -42q115 111 199 111q63 0 63 -69q0 -28 -17 -98l-45 -185q-13 -52 -13 -58q0 -21 20 -21q38 0 98 72l24 -19q-86 -122 -172 -122z" />
<glyph unicode="n" horiz-adv-x="563" d="M153 0l-67 -8l-10 8l85 401l-99 6l4 29l170 51l13 -10l-21 -103q52 50 108.5 81.5t100.5 31.5q64 0 64 -69q0 -32 -16 -98l-45 -185q-13 -52 -13 -58q0 -21 19 -21q41 0 99 72l24 -19q-33 -51 -79 -86.5t-94 -35.5q-23 0 -36.5 11.5t-13.5 31.5q0 15 16 81l43 176 q16 68 16 87q0 46 -35 46q-58 0 -166 -89l-27 -121q-11 -50 -40 -210z" />
<glyph unicode="o" horiz-adv-x="488" d="M221 -13q-73 0 -120 46.5t-47 129.5q0 134 77 229t184 95q72 0 117 -46t45 -129q0 -131 -76 -228t-180 -97zM232 27q71 0 117.5 82.5t46.5 187.5q0 150 -92 150q-71 0 -119.5 -79.5t-48.5 -192.5q0 -75 26 -111.5t70 -36.5z" />
<glyph unicode="p" horiz-adv-x="512" d="M-58 -241l7 34l86 14l126 594l-99 6l4 29l170 51l13 -10l-24 -112q46 56 100 89t98 33q40 0 65.5 -30t25.5 -93q0 -83 -46.5 -171.5t-119.5 -147t-143 -58.5q-31 0 -57 15q-25 -121 -37 -194l92 -15l-8 -34h-253zM376 420q-63 0 -161 -104l-50 -233q38 -28 76 -28 q72 0 131 76q65 86 65 193q0 96 -61 96z" />
<glyph unicode="q" horiz-adv-x="488" d="M123 147q0 -91 63 -91q62 0 150 92l53 254q-31 19 -62 19q-63 0 -120 -59q-38 -39 -61 -96.5t-23 -118.5zM477 478l-109 -517q-13 -61 -29 -154l89 -14l-8 -34h-253l7 34l90 15l61 287q-46 -49 -97 -78.5t-91 -29.5t-65 31t-25 95q0 81 48.5 169t122.5 146.5t142 58.5 q37 0 65 -24l34 25z" />
<glyph unicode="r" horiz-adv-x="400" d="M76 0l85 401l-99 6l4 29l165 51l13 -10l-22 -134q83 144 151 144q48 0 67 -30q-1 -25 -15 -40.5t-38 -15.5t-59 26q-67 -56 -123 -165l-12 -52q-11 -50 -40 -210l-67 -8z" />
<glyph unicode="s" horiz-adv-x="360" d="M329 129q0 -63 -47 -102.5t-122 -39.5q-112 0 -124 99q4 13 14.5 20.5t22.5 7.5q37 0 48 -44l11 -43q4 -1 14 -1q51 0 80.5 23t29.5 62q0 27 -12.5 48.5t-52.5 50.5q-44 34 -66 64t-22 73q0 60 44 100t115 40q99 0 119 -88q-9 -28 -38 -28q-35 0 -51 47l-9 29q-4 1 -14 1 q-49 0 -72 -22.5t-23 -59.5q0 -31 15 -51.5t59 -52.5q46 -35 63.5 -62.5t17.5 -70.5z" />
<glyph unicode="t" horiz-adv-x="329" d="M100 111l67 314h-102l7 40l108 10l47 134h51l-29 -135h127l-8 -54l-129 4l-61 -287q-9 -40 -9 -58q0 -11 7 -17t17 -6q38 0 98 72l25 -19q-85 -122 -171 -122q-23 0 -39 13.5t-16 37.5q0 22 10 73z" />
<glyph unicode="u" horiz-adv-x="572" d="M412 -13q-22 0 -37.5 13.5t-15.5 38.5q0 23 8 62q-62 -57 -109.5 -85.5t-90.5 -28.5q-69 0 -69 73q0 24 21 126l46 216l-99 5l4 30l174 50l13 -10l-63 -283q-15 -68 -15 -95q0 -43 38 -43q30 0 64.5 19t94.5 67l27 133q26 128 36 192l65 20l13 -10l-71 -342 q-9 -45 -9 -57q0 -10 7 -16t16 -6q36 0 99 72l24 -19q-44 -57 -83.5 -89.5t-87.5 -32.5z" />
<glyph unicode="v" horiz-adv-x="478" d="M178 -2q-6 231 -26 373q-3 28 -9.5 37.5t-18.5 9.5q-14 0 -28 -13.5t-40 -52.5l-23 16q53 119 126 119q30 0 45 -18.5t22 -60.5q18 -117 20 -328q95 111 170 252l3 6l-7 39q-4 26 -4 39q0 71 54 71q27 0 38 -13q5 -8 5 -28q0 -43 -50 -136q-78 -148 -241 -314l-29 -3z " />
<glyph unicode="w" horiz-adv-x="729" d="M175 -2q-1 220 -23 376q-3 27 -9 35.5t-19 8.5q-14 0 -28.5 -14.5t-39.5 -51.5l-23 16q53 119 123 119q31 0 46 -15.5t21 -51.5q17 -101 19 -323q115 169 204 378h41q8 -169 14 -388q96 118 164 244q1 1 2.5 4l2.5 5l-8 35q-5 20 -5 41q0 35 17.5 53t42.5 18 q23 -1 33 -13q6 -9 6 -30q0 -39 -51 -134q-79 -153 -234 -314l-29 -3l-7 5q-9 174 -16 316q-113 -212 -207 -318l-30 -3z" />
<glyph unicode="x" horiz-adv-x="519" d="M-5 58q3 17 16.5 26.5t26.5 9.5q31 0 51 -36l11 -20q9 7 19 18q62 67 129 167l-42 143q-9 32 -17 43t-23 11q-35 0 -75 -68l-23 17q53 118 125 118q29 0 46.5 -19t30.5 -67l31 -111q53 84 108 152q38 45 82 45q22 0 41.5 -14t25.5 -39q0 -21 -12 -34.5t-29 -13.5 q-32 0 -55 34l-6 8q-3 -2 -7.5 -7.5t-6.5 -7.5q-62 -69 -129 -164l35 -127q11 -40 23 -53t34 -13q38 0 96 72l25 -19q-38 -56 -80 -89t-80 -33q-24 0 -40.5 15.5t-28.5 56.5l-37 124q-64 -105 -113 -162q-29 -34 -70 -34q-32 0 -55.5 18.5t-26.5 52.5z" />
<glyph unicode="y" horiz-adv-x="476" d="M-82 -182q8 45 54 45q33 0 81 -35l3 -2q49 31 90 73q23 23 53 60q-4 61 -37 318q-11 92 -18 116.5t-21 24.5q-13 0 -27 -13.5t-40 -52.5l-23 16q56 119 127 119q31 0 46.5 -26.5t24.5 -106.5q16 -159 23 -311q55 99 84 165t53 149q24 84 39 110t37 26q17 0 27 -9.5 t10 -24.5q0 -31 -25 -81q-34 -70 -80 -152q-87 -154 -134 -226q-57 -85 -94 -126q-106 -114 -182 -114q-32 0 -50.5 16t-20.5 42z" />
<glyph unicode="z" horiz-adv-x="462" d="M68 283l23 149l69 55q137 -36 237 -79l34 66l55 12l12 -10q-18 -44 -95 -123q-48 -50 -139.5 -131t-116.5 -104l27 -20q72 -52 144 -52q39 0 74 22q-30 36 -30 59t14 37.5t36 16.5q15 -6 24 -23t9 -36q0 -54 -51 -99.5t-109 -45.5q-39 0 -80.5 19.5t-68.5 52.5l-25 30 l-38 -79l-58 -6l-8 6q35 61 82 107q37 36 128.5 119.5t139.5 131.5q-92 29 -206 55l-42 -136z" />
<glyph unicode="{" horiz-adv-x="379" d="M67 258l9 40q70 9 100.5 39t30.5 83q0 14 -7.5 60t-7.5 72q0 82 46 122.5t147 40.5h39l-7 -39l-23 -1q-80 -4 -106.5 -31t-26.5 -97q0 -21 1.5 -71t1.5 -64q0 -52 -31.5 -87.5t-84.5 -46.5q69 -16 69 -85q0 -27 -23.5 -125t-23.5 -128q0 -28 19.5 -40.5t63.5 -16.5l33 -3 l-8 -39h-51q-126 0 -126 91q0 47 33 134.5t33 117.5q0 61 -100 74z" />
<glyph unicode="|" horiz-adv-x="251" d="M113 -250v1000h57v-1000h-57z" />
<glyph unicode="}" horiz-adv-x="379" d="M356 298l-9 -40q-70 -9 -100.5 -39t-30.5 -83q0 -15 7.5 -60.5t7.5 -71.5q0 -82 -46 -122.5t-147 -40.5h-39l7 39l23 1q80 4 106.5 31t26.5 97q0 21 -1.5 71t-1.5 64q0 52 31.5 87.5t84.5 46.5q-69 16 -69 85q0 27 23.5 125t23.5 128q0 28 -19.5 40.5t-63.5 16.5l-33 3 l8 39h51q126 0 126 -91q0 -47 -33 -134.5t-33 -117.5q0 -61 100 -74z" />
<glyph unicode="~" horiz-adv-x="530" d="M299 365q43 -39 79 -39q50 0 60 86l47 -8q-9 -131 -113 -131q-51 0 -108 52q-42 39 -79 39q-49 0 -59 -86l-47 8q9 131 112 131q51 0 108 -52z" />
<glyph unicode="&#xa1;" horiz-adv-x="290" d="M184 278l-19 -157q-19 -194 -29 -252q-15 -77 -64 -77q-45 0 -45 46q0 8 1 16.5t4 22t6 26.5t9.5 35t12.5 42.5t16.5 55t20 65.5t25 81.5t29.5 95.5h33zM259 430q0 -29 -21 -49.5t-49 -20.5q-26 0 -41.5 17.5t-15.5 42.5q0 28 21 48t50 20q24 0 40 -16.5t16 -41.5z" />
<glyph unicode="&#xa2;" d="M234 -45h-37l21 103q-61 5 -97.5 53t-36.5 133q0 119 73 212t163 101l21 103h37l-21 -105q52 -6 86 -40t34 -87q0 -25 -11.5 -37t-27.5 -12q-44 0 -48 61l-5 61q-18 8 -38 9l-78 -384q70 4 123 73l23 -18q-27 -49 -70.5 -82t-89.5 -40zM159 254q0 -103 74 -124l78 381 q-60 -8 -106 -84.5t-46 -172.5z" />
<glyph unicode="&#xa3;" d="M3 0l13 58q149 96 162 226h-111l11 50h97q-2 9 -23 59t-21 85q0 75 58 128.5t146 53.5q80 0 122 -40.5t42 -119.5q-17 -31 -45 -31q-24 0 -35.5 15t-14.5 52q-4 50 -6 74q-21 4 -46 4q-62 0 -98 -41.5t-36 -98.5q0 -41 12 -90t12 -50h142l-10 -50h-132 q-15 -113 -142 -203h329l-16 -81h-410z" />
<glyph unicode="&#xa4;" d="M180 329q0 -49 31.5 -80.5t76.5 -31.5t76.5 31.5t31.5 80.5t-31.5 80.5t-76.5 31.5t-76.5 -31.5t-31.5 -80.5zM123 329q0 62 38 105l-37 22q-57 34 -57 58q0 15 10.5 26t25.5 11q13 0 26 -12.5t32 -45.5l22 -37q46 35 105 35t105 -35l22 37q35 58 59 58q15 0 25.5 -11 t10.5 -26q0 -24 -57 -58l-37 -22q37 -43 37 -105t-37 -105l37 -22q33 -20 45 -32.5t12 -26.5q0 -15 -10.5 -25.5t-25.5 -10.5q-24 0 -59 58l-22 37q-45 -36 -105 -36t-105 36l-22 -37q-19 -33 -32 -45.5t-26 -12.5q-15 0 -25.5 10.5t-10.5 25.5q0 14 12 26.5t45 32.5l36 22 q-37 43 -37 105z" />
<glyph unicode="&#xa5;" d="M42 143l10 50h160l16 77h-160l10 50h142l-83 278l-72 10l8 39h236l-8 -39l-82 -11l72 -268l167 269l-66 10l8 39h188l-8 -39l-71 -12l-176 -276h142l-11 -50h-161q-15 -70 -16 -77h162l-11 -50h-160q-1 -6 -18 -93l98 -11l-8 -39h-284l8 39l109 11l19 93h-160z" />
<glyph unicode="&#xa6;" horiz-adv-x="251" d="M113 -250v450h57v-450h-57zM170 320h-57v430h57v-430z" />
<glyph unicode="&#xa7;" horiz-adv-x="465" d="M341 686q106 0 127 -89q-9 -27 -39 -27q-35 0 -50 46l-11 34q-4 1 -13 1q-49 0 -74 -25t-25 -62q0 -31 15 -50t62 -53l48 -36q40 -30 57 -57.5t17 -69.5q0 -60 -45.5 -100.5t-130.5 -49.5q38 -30 52 -54.5t14 -63.5q0 -61 -47 -101t-121 -40q-55 0 -87 25.5t-37 69.5 q8 27 36 27q38 0 48 -43l10 -42q4 -1 15 -1q53 0 84 25t31 66q0 26 -13.5 46.5t-51.5 48.5l-48 36q-44 33 -65.5 63t-21.5 75q0 58 44 101.5t126 53.5q-58 47 -58 106t42 99.5t110 40.5zM213 197l30 -22q73 5 109.5 32.5t36.5 70.5q0 30 -12 51t-48 48l-48 36 q-74 -5 -107.5 -36t-33.5 -77q0 -29 15.5 -50.5t57.5 -52.5z" />
<glyph unicode="&#xa8;" horiz-adv-x="400" d="M197 624q-19 0 -32.5 12.5t-13.5 33.5q0 25 16.5 41t39.5 16q19 0 32 -12.5t13 -31.5q0 -26 -16 -42.5t-39 -16.5zM390 624q-18 0 -31 12.5t-13 33.5q0 25 16.5 41t37.5 16q20 0 33 -12.5t13 -31.5q0 -26 -16 -42.5t-40 -16.5z" />
<glyph unicode="&#xa9;" horiz-adv-x="776" d="M392 24q137 0 234.5 94.5t97.5 252.5q0 127 -74 200.5t-192 73.5q-137 0 -235 -95t-98 -251q0 -128 74 -201.5t193 -73.5zM396 -15q-143 0 -232 82.5t-89 226.5q0 89 31.5 164t84 124t121 76t142.5 27q142 0 231.5 -83t89.5 -227q0 -176 -112 -283t-267 -107zM420 135 q-75 0 -123 49.5t-48 129.5q0 97 62.5 162t157.5 65q57 0 103 -31l-13 -90h-42v76q-26 8 -53 8q-71 0 -112 -52.5t-41 -131.5q0 -72 34.5 -110t85.5 -38q21 0 42 6l23 76h44l-16 -93q-58 -26 -104 -26z" />
<glyph unicode="&#xaa;" horiz-adv-x="368" d="M173 530q0 -59 41 -59q33 0 90 51l37 171q-20 11 -42 11q-44 0 -85 -52t-41 -122zM335 416q-38 0 -38 48q0 13 1 20q-65 -68 -120 -68q-28 0 -47.5 20.5t-19.5 63.5q0 85 72 167.5t141 82.5q26 0 45 -19l33 24l12 -8l-53 -231q-5 -19 -5 -34q0 -14 16 -14q24 0 62 45 l18 -13q-57 -84 -117 -84z" />
<glyph unicode="&#xab;" horiz-adv-x="553" d="M251 50l-177 176l9 53l226 176l22 -31l-184 -171l132 -175zM454 50l-177 176l9 53l226 176l22 -31l-184 -171l132 -175z" />
<glyph unicode="&#xac;" horiz-adv-x="530" d="M54 339v54h444v-226h-57v172h-387z" />
<glyph unicode="&#xad;" horiz-adv-x="311" d="M56 219v64h231v-64h-231z" />
<glyph unicode="&#xae;" horiz-adv-x="463" d="M286 347q74 0 126 51.5t52 136.5q0 68 -39.5 107.5t-100.5 39.5q-74 0 -126.5 -51.5t-52.5 -136.5q0 -68 39 -107.5t102 -39.5zM288 317q-81 0 -131 46.5t-50 128.5q0 99 63.5 159.5t150.5 60.5q80 0 130.5 -47t50.5 -127q0 -100 -63 -160.5t-151 -60.5zM328 603h-22 l-16 -78h17q46 0 46 46q0 32 -25 32zM239 605l3 15h87q62 0 62 -51q0 -46 -58 -56q17 -7 26 -33l15 -43l27 -3l-3 -15q-13 -3 -31 -3q-17 0 -24.5 5t-11.5 21l-13 40q-5 16 -9 21t-14 5h-9l-14 -71l24 -3l-3 -15h-92l3 15l27 3l33 165z" />
<glyph unicode="&#xaf;" horiz-adv-x="400" d="M145 613l13 61h261l-12 -61h-262z" />
<glyph unicode="&#xb0;" horiz-adv-x="328" d="M245 464q36 0 60.5 26.5t24.5 65.5t-24.5 66t-60.5 27t-60.5 -27t-24.5 -66t24.5 -65.5t60.5 -26.5zM245 428q-53 0 -90 35t-37 93q0 57 37 93t90 36t90 -36t37 -93q0 -58 -37 -93t-90 -35z" />
<glyph unicode="&#xb1;" horiz-adv-x="530" d="M503 0h-444v53h444v-53zM253 112v192h-194v53h194v187h56v-187h194v-53h-194v-192h-56z" />
<glyph unicode="&#xb2;" horiz-adv-x="347" d="M101 426l9 47q137 123 178 173t41 88q0 65 -64 65q-23 0 -43 -9l-3 -42q-4 -54 -39 -54q-28 0 -31 32q25 105 142 105q54 0 81.5 -25.5t27.5 -68.5q0 -41 -35 -78t-154 -135q-9 -7 -14.5 -11.5t-14 -11.5t-15.5 -13h199l-13 -62h-252z" />
<glyph unicode="&#xb3;" horiz-adv-x="347" d="M223 417q-114 0 -114 105q10 23 31 23q32 0 33 -46l1 -46q18 -6 40 -6q38 0 64.5 23.5t26.5 67.5q0 37 -23 54.5t-74 17.5l5 31q54 0 85.5 24t31.5 70q0 33 -17 49.5t-45 16.5q-19 0 -37 -6l-6 -41q-6 -40 -36 -40q-23 0 -30 21q6 46 39 71t86 25q55 0 83.5 -26t28.5 -67 q0 -39 -28 -68.5t-78 -42.5q87 -17 87 -94q0 -53 -44 -84.5t-110 -31.5z" />
<glyph unicode="&#xb4;" horiz-adv-x="400" d="M220 549q50 112 74 168q21 43 51 43q17 0 28 -9t11 -26q0 -23 -22 -49q-20 -24 -59.5 -71t-59.5 -71z" />
<glyph unicode="&#xb5;" horiz-adv-x="550" d="M433 -13q-54 0 -56 58q0 20 7 62q-71 -120 -161 -120q-32 0 -58.5 20.5t-38.5 57.5l-19 -168q-6 -53 -18.5 -70t-37.5 -18t-41 31l76 261l59 368l83 18l8 -10q-66 -257 -84 -338q20 -76 97 -76q41 0 74 23.5t72 87.5q9 53 53 295l83 18l8 -10q-73 -257 -88 -342 q-8 -47 -2 -63t31 -16q19 0 44 9l3 -26q-38 -52 -94 -52z" />
<glyph unicode="&#xb6;" horiz-adv-x="597" d="M360 -130l139 753h-67l-88 -473q-114 17 -180.5 72.5t-66.5 149.5q0 138 94.5 218t275.5 80h209l-7 -41l-97 -11l-81 -438q-37 -201 -54 -310h-77z" />
<glyph unicode="&#xb7;" horiz-adv-x="300" d="M182 263q-26 0 -42.5 16t-16.5 41q0 29 21 49t50 20q26 0 42 -16.5t16 -40.5q0 -30 -20 -49.5t-50 -19.5z" />
<glyph unicode="&#xb8;" horiz-adv-x="400" d="M95 -87l43 87h28l-32 -69q49 -18 70.5 -37t21.5 -51q0 -31 -28 -52.5t-75 -21.5q-52 0 -89 23l11 25q35 -16 66 -16q27 0 42.5 12.5t15.5 34.5q0 26 -18 40.5t-56 24.5z" />
<glyph unicode="&#xb9;" horiz-adv-x="347" d="M346 426h-235l6 26l81 9l63 314l-78 -5l6 26l148 35l7 -6l-21 -89l-57 -274l85 -10z" />
<glyph unicode="&#xba;" horiz-adv-x="345" d="M234 416q-51 0 -84.5 31.5t-33.5 89.5q0 87 53 150t128 63q51 0 83 -31t32 -89q0 -86 -52.5 -150t-125.5 -64zM242 447q47 0 78 57.5t31 128.5q0 85 -62 85q-47 0 -78.5 -56.5t-31.5 -129.5q0 -85 63 -85z" />
<glyph unicode="&#xbb;" horiz-adv-x="553" d="M335 455l177 -176l-9 -53l-226 -176l-22 31l184 171l-132 175zM132 455l177 -176l-9 -53l-226 -176l-22 31l184 171l-132 175z" />
<glyph unicode="&#xbc;" horiz-adv-x="870" d="M250 -15l-34 25l497 656l33 -26zM815 98h-66l-23 -111h-62l23 111h-174l9 46l238 257h50l-52 -255h66zM309 254h-235l6 26l81 9l63 314l-78 -5l6 26l148 35l7 -6l-21 -89l-57 -274l85 -10zM561 146h136l38 189z" />
<glyph unicode="&#xbd;" horiz-adv-x="870" d="M230 -15l-34 25l497 656l33 -26zM309 254h-235l6 26l81 9l63 314l-78 -5l6 26l148 35l7 -6l-21 -89l-57 -274l85 -10zM534 0l9 47q137 123 178 173t41 88q0 65 -64 65q-24 0 -43 -9l-3 -42q-4 -54 -39 -54q-28 0 -31 32q25 105 142 105q54 0 81.5 -25.5t27.5 -68.5 q0 -41 -35 -78t-154 -135q-28 -23 -44 -36h199l-13 -62h-252z" />
<glyph unicode="&#xbe;" horiz-adv-x="870" d="M260 -15l-34 25l497 656l33 -26zM186 245q-114 0 -114 105q10 23 31 23q32 0 33 -46l1 -46q18 -6 40 -6q38 0 64.5 23.5t26.5 67.5q0 37 -23 54.5t-74 17.5l5 31q54 0 85.5 24t31.5 70q0 33 -17 49.5t-45 16.5q-19 0 -37 -6l-6 -41q-6 -40 -36 -40q-23 0 -30 21 q6 46 39 71t86 25q55 0 83.5 -26t28.5 -67q0 -39 -28 -68.5t-78 -42.5q87 -17 87 -94q0 -53 -44 -84.5t-110 -31.5zM815 98h-66l-23 -111h-62l23 111h-174l9 46l238 257h50l-52 -255h66zM561 146h136l38 189z" />
<glyph unicode="&#xbf;" horiz-adv-x="444" d="M395 431q0 -28 -20.5 -49t-47.5 -21q-26 0 -42 17t-16 43q0 27 20.5 47.5t45.5 20.5q26 0 43 -16.5t17 -41.5zM338 292q-4 -73 -12 -107t-27 -55q-38 -40 -128 -94q-102 -61 -102 -130q0 -36 24 -55.5t68 -19.5q24 0 52 4l31 75q9 22 20.5 31.5t31.5 9.5q16 0 26 -11 t11 -28q-13 -51 -58 -86t-122 -35q-70 0 -112 31.5t-42 91.5q0 52 30 88.5t112 88.5q100 62 120 82q17 17 25.5 42.5t16.5 81.5z" />
<glyph unicode="&#xc0;" horiz-adv-x="676" d="M241 289h188l-38 283zM-29 0l8 40l83 12l343 618h58l88 -619l88 -11l-8 -40h-265l8 40l87 10l-26 193h-218l-101 -190l87 -13l-8 -40h-224zM480 746l-18 -25q-6 3 -125 67q-50 27 -50 56q0 15 11 24t27 9q24 0 62 -38q48 -47 93 -93z" />
<glyph unicode="&#xc1;" horiz-adv-x="676" d="M241 289h188l-38 283zM-29 0l8 40l83 12l343 618h58l88 -619l88 -11l-8 -40h-265l8 40l87 10l-26 193h-218l-101 -190l87 -13l-8 -40h-224zM397 735q19 16 56.5 47.5t56.5 47.5q38 31 51 35q8 2 17 2q16 0 26.5 -9.5t10.5 -24.5t-10.5 -27.5t-43.5 -27.5 q-25 -11 -75.5 -32.5t-75.5 -32.5z" />
<glyph unicode="&#xc2;" horiz-adv-x="676" d="M-29 0l8 40l83 12l343 618h58l88 -619l88 -11l-8 -40h-265l8 40l87 10l-26 193h-218l-101 -190l87 -13l-8 -40h-224zM241 289h188l-38 283zM473 861l119 -120l-24 -24l-121 82l-144 -82l-14 24l152 120h32z" />
<glyph unicode="&#xc3;" horiz-adv-x="676" d="M-29 0l8 40l83 12l343 618h58l88 -619l88 -11l-8 -40h-265l8 40l87 10l-26 193h-218l-101 -190l87 -13l-8 -40h-224zM241 289h188l-38 283zM262 735q38 128 128 128q39 0 75 -34q4 -3 18.5 -20t24.5 -23t24 -6q26 0 46 18.5t38 62.5l28 -9q-21 -67 -51.5 -97.5 t-76.5 -30.5q-39 0 -76 33q-5 5 -15 16t-15.5 16.5t-15.5 11t-21 5.5q-49 0 -84 -81z" />
<glyph unicode="&#xc4;" horiz-adv-x="676" d="M-29 0l8 40l83 12l343 618h58l88 -619l88 -11l-8 -40h-265l8 40l87 10l-26 193h-218l-101 -190l87 -13l-8 -40h-224zM241 289h188l-38 283zM321 748q-19 0 -32.5 12.5t-13.5 32.5q0 25 17 41.5t39 16.5q19 0 32 -12.5t13 -31.5q0 -26 -16 -42.5t-39 -16.5zM539 748 q-17 0 -30 12.5t-13 32.5q0 25 16 41.5t38 16.5q20 0 33 -12.5t13 -31.5q0 -26 -16.5 -42.5t-40.5 -16.5z" />
<glyph unicode="&#xc5;" horiz-adv-x="676" d="M-29 0l8 40l83 12l343 618h58l88 -619l88 -11l-8 -40h-265l8 40l87 10l-26 193h-218l-101 -190l87 -13l-8 -40h-224zM241 289h188l-38 283zM446 746q26 0 42.5 20t16.5 47q0 22 -12 37t-36 15q-26 0 -44.5 -19t-18.5 -47q0 -23 14 -38t38 -15zM442 713q-37 0 -63 22.5 t-26 59.5q0 47 32 75t73 28q39 0 63.5 -22t24.5 -60q0 -46 -31.5 -74.5t-72.5 -28.5z" />
<glyph unicode="&#xc6;" horiz-adv-x="880" d="M462 360q16 84 44 254h-5l-223 -325h171zM-38 0l8 40l89 12l394 566l-89 11l8 41h524l-24 -178h-51v127h-226l-48 -254h154l34 96h43l-45 -237h-43l3 95h-154l-2 -9q-23 -126 -45 -260h260l45 128h51l-39 -178h-500l8 40l87 11l36 192h-194l-131 -191l79 -12l-8 -40h-224 z" />
<glyph unicode="&#xc7;" horiz-adv-x="593" d="M270 -87l36 73q-114 8 -181 88t-67 207q0 166 112.5 285t269.5 119q87 0 169 -53l-23 -140h-57v123q-46 20 -98 20q-119 0 -200.5 -103t-81.5 -247q0 -120 61 -185t153 -65q41 0 89 15l41 125h60l-28 -145q-104 -45 -191 -45l-25 -54q49 -18 70.5 -37t21.5 -51 q0 -31 -28 -52.5t-75 -21.5q-52 0 -89 23l11 25q35 -16 66 -16q27 0 42.5 12.5t15.5 34.5q0 26 -18 40.5t-56 24.5z" />
<glyph unicode="&#xc8;" horiz-adv-x="587" d="M122 629l8 41h462l-24 -178h-50v127h-217l-48 -254h155l34 96h42l-45 -237h-42l3 95h-155l-2 -9q-23 -126 -45 -260h260l45 128h51l-39 -178h-499l8 40l86 11l58 309q24 129 45 258zM437 746l-18 -25q-6 3 -125 67q-50 27 -50 56q0 15 11 24t27 9q24 0 62 -38 q48 -47 93 -93z" />
<glyph unicode="&#xc9;" horiz-adv-x="587" d="M122 629l8 41h462l-24 -178h-50v127h-217l-48 -254h155l34 96h42l-45 -237h-42l3 95h-155l-2 -9q-23 -126 -45 -260h260l45 128h51l-39 -178h-499l8 40l86 11l58 309q24 129 45 258zM369 735q19 16 56.5 47.5t56.5 47.5q38 31 51 35q8 2 17 2q16 0 26.5 -9.5t10.5 -24.5 t-10.5 -27.5t-43.5 -27.5q-25 -11 -75.5 -32.5t-75.5 -32.5z" />
<glyph unicode="&#xca;" horiz-adv-x="587" d="M122 629l8 41h462l-24 -178h-50v127h-217l-48 -254h155l34 96h42l-45 -237h-42l3 95h-155l-2 -9q-23 -126 -45 -260h260l45 128h51l-39 -178h-499l8 40l86 11l58 309q24 129 45 258zM430 861l119 -120l-24 -24l-121 82l-144 -82l-14 24l152 120h32z" />
<glyph unicode="&#xcb;" horiz-adv-x="587" d="M122 629l8 41h462l-24 -178h-50v127h-217l-48 -254h155l34 96h42l-45 -237h-42l3 95h-155l-2 -9q-23 -126 -45 -260h260l45 128h51l-39 -178h-499l8 40l86 11l58 309q24 129 45 258zM295 748q-19 0 -32.5 12.5t-13.5 32.5q0 25 17 41.5t39 16.5q19 0 32 -12.5t13 -31.5 q0 -26 -16 -42.5t-39 -16.5zM513 748q-17 0 -30 12.5t-13 32.5q0 25 16 41.5t38 16.5q20 0 33 -12.5t13 -31.5q0 -26 -16.5 -42.5t-40.5 -16.5z" />
<glyph unicode="&#xcc;" horiz-adv-x="358" d="M122 629l8 41h265l-8 -41l-86 -10l-58 -309q-23 -122 -45 -259l91 -11l-8 -40h-265l8 40l85 10l59 310q24 129 45 258zM320 746l-18 -25q-6 3 -125 67q-50 27 -50 56q0 15 11 24t27 9q24 0 62 -38q48 -47 93 -93z" />
<glyph unicode="&#xcd;" horiz-adv-x="358" d="M122 629l8 41h265l-8 -41l-86 -10l-58 -309q-23 -122 -45 -259l91 -11l-8 -40h-265l8 40l85 10l59 310q24 129 45 258zM224 735q19 16 56.5 47.5t56.5 47.5q38 31 51 35q8 2 17 2q16 0 26.5 -9.5t10.5 -24.5t-10.5 -27.5t-43.5 -27.5q-25 -11 -75.5 -32.5t-75.5 -32.5z " />
<glyph unicode="&#xce;" horiz-adv-x="358" d="M122 629l8 41h265l-8 -41l-86 -10l-58 -309q-23 -122 -45 -259l91 -11l-8 -40h-265l8 40l85 10l59 310q24 129 45 258zM311 861l119 -120l-24 -24l-121 82l-144 -82l-14 24l152 120h32z" />
<glyph unicode="&#xcf;" horiz-adv-x="358" d="M122 629l8 41h265l-8 -41l-86 -10l-58 -309q-23 -122 -45 -259l91 -11l-8 -40h-265l8 40l85 10l59 310q24 129 45 258zM169 748q-19 0 -32.5 12.5t-13.5 32.5q0 25 17 41.5t39 16.5q19 0 32 -12.5t13 -31.5q0 -26 -16 -42.5t-39 -16.5zM387 748q-17 0 -30 12.5t-13 32.5 q0 25 16 41.5t38 16.5q20 0 33 -12.5t13 -31.5q0 -26 -16.5 -42.5t-40.5 -16.5z" />
<glyph unicode="&#xd0;" horiz-adv-x="701" d="M122 629l8 41h274q129 0 205 -74t76 -202q0 -96 -33 -173t-89 -124t-125.5 -72t-147.5 -25h-274l8 40l86 11l50 269h-102l8 46h103q30 168 44 252zM398 320h-153l-2 -10q-32 -176 -46 -264h107q91 0 158 53.5t97 130.5t31 164q1 111 -59 170t-168 59h-61l-48 -257h152z " />
<glyph unicode="&#xd1;" horiz-adv-x="727" d="M548 629l8 41h236l-8 -41l-80 -13l-116 -626h-31l-315 557l-94 -494l100 -13l-6 -40h-233l9 40l82 12l105 560l-4 7l-85 10l9 41h153l291 -524l86 470zM299 735q38 128 128 128q39 0 75 -34q4 -3 18.5 -20t24.5 -23t24 -6q26 0 46 18.5t38 62.5l28 -9 q-21 -67 -51.5 -97.5t-76.5 -30.5q-39 0 -76 33q-5 5 -15 16t-15.5 16.5t-15.5 11t-21 5.5q-49 0 -84 -81z" />
<glyph unicode="&#xd2;" horiz-adv-x="660" d="M302 -14q-107 0 -171.5 73.5t-64.5 199.5q0 175 101 300t248 125q109 0 174 -76t65 -199q0 -114 -45.5 -211t-126.5 -154.5t-180 -57.5zM316 36q105 0 177 108t72 267q0 106 -40 164.5t-122 58.5q-104 0 -176 -108.5t-72 -268.5q0 -103 40 -162t121 -59zM469 746l-18 -25 q-6 3 -125 67q-50 27 -50 56q0 15 11 24t27 9q24 0 62 -38q48 -47 93 -93z" />
<glyph unicode="&#xd3;" horiz-adv-x="660" d="M302 -14q-107 0 -171.5 73.5t-64.5 199.5q0 175 101 300t248 125q109 0 174 -76t65 -199q0 -114 -45.5 -211t-126.5 -154.5t-180 -57.5zM316 36q105 0 177 108t72 267q0 106 -40 164.5t-122 58.5q-104 0 -176 -108.5t-72 -268.5q0 -103 40 -162t121 -59zM403 735 q19 16 56.5 47.5t56.5 47.5q38 31 51 35q8 2 17 2q16 0 26.5 -9.5t10.5 -24.5t-10.5 -27.5t-43.5 -27.5q-25 -11 -75.5 -32.5t-75.5 -32.5z" />
<glyph unicode="&#xd4;" horiz-adv-x="660" d="M316 36q105 0 177 108t72 267q0 106 -40 164.5t-122 58.5q-104 0 -176 -108.5t-72 -268.5q0 -103 40 -162t121 -59zM302 -14q-107 0 -171.5 73.5t-64.5 199.5q0 175 101 300t248 125q109 0 174 -76t65 -199q0 -114 -45.5 -211t-126.5 -154.5t-180 -57.5zM464 861 l119 -120l-24 -24l-121 82l-144 -82l-14 24l152 120h32z" />
<glyph unicode="&#xd5;" horiz-adv-x="660" d="M302 -14q-107 0 -171.5 73.5t-64.5 199.5q0 175 101 300t248 125q109 0 174 -76t65 -199q0 -114 -45.5 -211t-126.5 -154.5t-180 -57.5zM316 36q105 0 177 108t72 267q0 106 -40 164.5t-122 58.5q-104 0 -176 -108.5t-72 -268.5q0 -103 40 -162t121 -59zM243 735 q38 128 128 128q39 0 75 -34q4 -3 18.5 -20t24.5 -23t24 -6q26 0 46 18.5t38 62.5l28 -9q-21 -67 -51.5 -97.5t-76.5 -30.5q-39 0 -76 33q-5 5 -15 16t-15.5 16.5t-15.5 11t-21 5.5q-49 0 -84 -81z" />
<glyph unicode="&#xd6;" horiz-adv-x="660" d="M302 -14q-107 0 -171.5 73.5t-64.5 199.5q0 175 101 300t248 125q109 0 174 -76t65 -199q0 -114 -45.5 -211t-126.5 -154.5t-180 -57.5zM316 36q105 0 177 108t72 267q0 106 -40 164.5t-122 58.5q-104 0 -176 -108.5t-72 -268.5q0 -103 40 -162t121 -59zM311 748 q-19 0 -32.5 12.5t-13.5 32.5q0 25 17 41.5t39 16.5q19 0 32 -12.5t13 -31.5q0 -26 -16 -42.5t-39 -16.5zM529 748q-17 0 -30 12.5t-13 32.5q0 25 16 41.5t38 16.5q20 0 33 -12.5t13 -31.5q0 -26 -16.5 -42.5t-40.5 -16.5z" />
<glyph unicode="&#xd7;" horiz-adv-x="530" d="M452 121l-170 171l-171 -171l-39 38l171 171l-171 171l39 38l171 -170l170 170l39 -38l-171 -171l171 -171z" />
<glyph unicode="&#xd8;" horiz-adv-x="660" d="M691 657l-79 -82q42 -70 42 -166q0 -114 -45.5 -211t-126.5 -154.5t-180 -57.5q-112 0 -176 79l-82 -85l-37 33l91 95q-32 64 -32 151q0 175 101 300t248 125q103 0 167 -69l72 75zM152 264q0 -49 8 -91l377 394q-39 68 -132 68q-106 0 -179.5 -107.5t-73.5 -263.5z M314 35q107 0 180.5 107.5t73.5 262.5q0 66 -12 111l-379 -397q37 -84 137 -84z" />
<glyph unicode="&#xd9;" horiz-adv-x="712" d="M528 629l8 41h242l-8 -41l-86 -12l-65 -343q-29 -153 -102.5 -221t-188.5 -68q-101 0 -154.5 50t-53.5 144q0 38 13 107l14 74q24 129 45 258l-92 11l8 41h265l-8 -41l-87 -11l-62 -336q-11 -57 -11 -97q0 -61 38.5 -95.5t95.5 -34.5q105 0 154.5 51t76.5 192l61 318z M515 746l-18 -25q-6 3 -125 67q-50 27 -50 56q0 15 11 24t27 9q24 0 62 -38q48 -47 93 -93z" />
<glyph unicode="&#xda;" horiz-adv-x="712" d="M528 629l8 41h242l-8 -41l-86 -12l-65 -343q-29 -153 -102.5 -221t-188.5 -68q-101 0 -154.5 50t-53.5 144q0 38 13 107l14 74q24 129 45 258l-92 11l8 41h265l-8 -41l-87 -11l-62 -336q-11 -57 -11 -97q0 -61 38.5 -95.5t95.5 -34.5q105 0 154.5 51t76.5 192l61 318z M456 735q19 16 56.5 47.5t56.5 47.5q38 31 51 35q8 2 17 2q16 0 26.5 -9.5t10.5 -24.5t-10.5 -27.5t-43.5 -27.5q-25 -11 -75.5 -32.5t-75.5 -32.5z" />
<glyph unicode="&#xdb;" horiz-adv-x="712" d="M528 629l8 41h242l-8 -41l-86 -12l-65 -343q-29 -153 -102.5 -221t-188.5 -68q-101 0 -154.5 50t-53.5 144q0 38 13 107l14 74q24 129 45 258l-92 11l8 41h265l-8 -41l-87 -11l-62 -336q-11 -57 -11 -97q0 -61 38.5 -95.5t95.5 -34.5q105 0 154.5 51t76.5 192l61 318z M529 861l119 -120l-24 -24l-121 82l-144 -82l-14 24l152 120h32z" />
<glyph unicode="&#xdc;" horiz-adv-x="712" d="M528 629l8 41h242l-8 -41l-86 -12l-65 -343q-29 -153 -102.5 -221t-188.5 -68q-101 0 -154.5 50t-53.5 144q0 38 13 107l14 74q24 129 45 258l-92 11l8 41h265l-8 -41l-87 -11l-62 -336q-11 -57 -11 -97q0 -61 38.5 -95.5t95.5 -34.5q105 0 154.5 51t76.5 192l61 318z M376 748q-19 0 -32.5 12.5t-13.5 32.5q0 25 17 41.5t39 16.5q19 0 32 -12.5t13 -31.5q0 -26 -16 -42.5t-39 -16.5zM594 748q-17 0 -30 12.5t-13 32.5q0 25 16 41.5t38 16.5q20 0 33 -12.5t13 -31.5q0 -26 -16.5 -42.5t-40.5 -16.5z" />
<glyph unicode="&#xdd;" horiz-adv-x="554" d="M62 629l8 41h265l-8 -41l-88 -11l91 -289l186 287l-84 13l8 41h223l-8 -41l-90 -13l-222 -338q-20 -107 -39 -226l101 -12l-8 -40h-285l8 40l96 10l43 230l-117 339zM356 735q19 16 56.5 47.5t56.5 47.5q38 31 51 35q8 2 17 2q16 0 26.5 -9.5t10.5 -24.5t-10.5 -27.5 t-43.5 -27.5q-25 -11 -75.5 -32.5t-75.5 -32.5z" />
<glyph unicode="&#xde;" horiz-adv-x="562" d="M243 310q-4 -18 -10.5 -54.5t-9.5 -54.5h58q94 0 143 44t49 118q0 126 -151 126h-45zM122 629l8 41h265l-8 -41l-86 -10l-15 -84h43q115 0 175 -45t60 -125q0 -95 -77.5 -152.5t-213.5 -57.5h-58q-3 -17 -8.5 -52t-8.5 -52l91 -11l-8 -40h-265l8 40l85 10l59 310 q24 129 45 258z" />
<glyph unicode="&#xdf;" horiz-adv-x="505" d="M82 35q16 90 73 448q22 135 86.5 201.5t159.5 66.5q62 0 97.5 -31t35.5 -81q0 -47 -27.5 -83t-80.5 -75q-73 -52 -73 -114q0 -32 15 -55.5t49 -49.5q48 -35 65 -63t17 -74q0 -60 -46.5 -99t-120.5 -39q-114 0 -125 94q9 28 37 28q38 0 47 -44l10 -42q5 -1 16 -1 q52 0 83 25t31 66q0 26 -13 46.5t-51 48.5q-79 58 -79 132q0 46 27 83.5t84 86.5q68 59 68 120q0 41 -22 64t-55 23q-67 0 -104.5 -56t-58.5 -176q-6 -37 -32.5 -201t-43.5 -249q-34 -175 -103 -236q-54 -49 -106 -49q-35 0 -60.5 17t-32.5 45q3 16 16 26t30 10q31 0 72 -41 l13 -12q24 19 40 43q35 50 62 197z" />
<glyph unicode="&#xe0;" horiz-adv-x="522" d="M363 -13q-22 0 -37 15t-15 43q0 29 4 53q-98 -111 -175 -111q-40 0 -67.5 30t-27.5 88q0 84 50 174.5t123 149t136 58.5q32 0 57 -27l46 37l18 -9l-80 -353q-9 -38 -9 -57q0 -22 24 -22q39 0 98 72l24 -19q-34 -51 -78.5 -86.5t-90.5 -35.5zM123 146q0 -90 60 -90 q55 0 143 96l54 250q-33 19 -61 19q-54 0 -110 -58q-86 -90 -86 -217zM405 549l-23 -15q-20 24 -59.5 71t-59.5 71q-21 25 -21 51q0 15 11 25t27 10q31 0 51 -45q13 -28 37.5 -84t36.5 -84z" />
<glyph unicode="&#xe1;" horiz-adv-x="522" d="M363 -13q-22 0 -37 15t-15 43q0 29 4 53q-98 -111 -175 -111q-40 0 -67.5 30t-27.5 88q0 84 50 174.5t123 149t136 58.5q32 0 57 -27l46 37l18 -9l-80 -353q-9 -38 -9 -57q0 -22 24 -22q39 0 98 72l24 -19q-34 -51 -78.5 -86.5t-90.5 -35.5zM123 146q0 -90 60 -90 q55 0 143 96l54 250q-33 19 -61 19q-54 0 -110 -58q-86 -90 -86 -217zM337 549q50 112 74 168q21 43 51 43q17 0 28 -9t11 -26q0 -23 -22 -49q-20 -24 -59.5 -71t-59.5 -71z" />
<glyph unicode="&#xe2;" horiz-adv-x="522" d="M123 146q0 -90 60 -90q55 0 143 96l54 250q-33 19 -61 19q-54 0 -110 -58q-86 -90 -86 -217zM363 -13q-22 0 -37 15t-15 43q0 29 4 53q-98 -111 -175 -111q-40 0 -67.5 30t-27.5 88q0 84 50 174.5t123 149t136 58.5q32 0 57 -27l46 37l18 -9l-80 -353q-9 -38 -9 -57 q0 -22 24 -22q39 0 98 72l24 -19q-34 -51 -78.5 -86.5t-90.5 -35.5zM473 546l-103 121l-138 -121l-20 21l156 176h32l100 -176z" />
<glyph unicode="&#xe3;" horiz-adv-x="522" d="M123 146q0 -90 60 -90q55 0 143 96l54 250q-33 19 -61 19q-54 0 -110 -58q-86 -90 -86 -217zM363 -13q-22 0 -37 15t-15 43q0 29 4 53q-98 -111 -175 -111q-40 0 -67.5 30t-27.5 88q0 84 50 174.5t123 149t136 58.5q32 0 57 -27l46 37l18 -9l-80 -353q-9 -38 -9 -57 q0 -22 24 -22q39 0 98 72l24 -19q-34 -51 -78.5 -86.5t-90.5 -35.5zM204 586q11 63 40 95.5t68 32.5t74 -37q3 -3 10.5 -11.5t11 -12t11 -9.5t12.5 -8.5t12.5 -5t14.5 -2.5q21 0 39.5 21.5t27.5 62.5l25 -9q-12 -63 -40.5 -95.5t-67.5 -32.5q-41 0 -75 38q-15 17 -21.5 24 t-21 15.5t-29.5 8.5q-21 0 -39.5 -21.5t-27.5 -62.5z" />
<glyph unicode="&#xe4;" horiz-adv-x="522" d="M123 146q0 -90 60 -90q55 0 143 96l54 250q-33 19 -61 19q-54 0 -110 -58q-86 -90 -86 -217zM363 -13q-22 0 -37 15t-15 43q0 29 4 53q-98 -111 -175 -111q-40 0 -67.5 30t-27.5 88q0 84 50 174.5t123 149t136 58.5q32 0 57 -27l46 37l18 -9l-80 -353q-9 -38 -9 -57 q0 -22 24 -22q39 0 98 72l24 -19q-34 -51 -78.5 -86.5t-90.5 -35.5zM280 624q-19 0 -32.5 12.5t-13.5 33.5q0 25 16.5 41t39.5 16q19 0 32 -12.5t13 -31.5q0 -26 -16 -42.5t-39 -16.5zM473 624q-18 0 -31 12.5t-13 33.5q0 25 16.5 41t37.5 16q20 0 33 -12.5t13 -31.5 q0 -26 -16 -42.5t-40 -16.5z" />
<glyph unicode="&#xe5;" horiz-adv-x="522" d="M123 146q0 -90 60 -90q55 0 143 96l54 250q-33 19 -61 19q-54 0 -110 -58q-86 -90 -86 -217zM363 -13q-22 0 -37 15t-15 43q0 29 4 53q-98 -111 -175 -111q-40 0 -67.5 30t-27.5 88q0 84 50 174.5t123 149t136 58.5q32 0 57 -27l46 37l18 -9l-80 -353q-9 -38 -9 -57 q0 -22 24 -22q39 0 98 72l24 -19q-34 -51 -78.5 -86.5t-90.5 -35.5zM385 586q27 0 46.5 22t19.5 51q0 23 -14 39.5t-39 16.5q-29 0 -48 -22t-19 -51q0 -23 13.5 -39.5t40.5 -16.5zM382 549q-41 0 -68.5 25t-27.5 66q0 51 35 81.5t78 30.5q40 0 69 -24.5t29 -64.5 q0 -52 -35 -83t-80 -31z" />
<glyph unicode="&#xe6;" horiz-adv-x="667" d="M123 146q0 -90 60 -90q52 0 133 86q-1 10 -1 31q0 123 81 221q-34 27 -77 27q-54 0 -110 -58q-86 -90 -86 -217zM554 444q-50 0 -106 -70.5t-63 -159.5q116 34 170.5 80t54.5 91q0 27 -15.5 43t-40.5 16zM466 -13q-55 0 -93 30t-51 89q-99 -119 -182 -119q-40 0 -67.5 30 t-27.5 88q0 84 50 174.5t123 149t136 58.5q49 0 86 -50q65 50 136 50q49 0 74.5 -24t25.5 -68q0 -57 -67.5 -116t-223.5 -104q6 -119 103 -119q77 0 135 73l23 -18q-34 -55 -81 -89.5t-99 -34.5z" />
<glyph unicode="&#xe7;" horiz-adv-x="407" d="M149 -87l37 75q-61 6 -96.5 54t-35.5 132q0 124 80 218.5t177 94.5q89 0 108 -73q-6 -35 -42 -35q-27 0 -59 36l-30 34q-66 -23 -112.5 -98t-46.5 -166q0 -63 30 -96t81 -33q62 0 122 73l23 -18q-29 -51 -76 -85.5t-95 -38.5l-26 -56q49 -18 70.5 -37t21.5 -51 q0 -31 -28 -52.5t-75 -21.5q-52 0 -89 23l11 25q35 -16 66 -16q27 0 42.5 12.5t15.5 34.5q0 26 -18 40.5t-56 24.5z" />
<glyph unicode="&#xe8;" horiz-adv-x="407" d="M293 444q-50 0 -106 -70.5t-63 -159.5q116 34 170.5 80t54.5 91q0 27 -15.5 43t-40.5 16zM205 -13q-69 0 -110 46.5t-41 139.5q0 122 78.5 218t182.5 96q49 0 74.5 -24t25.5 -68q0 -57 -67.5 -116t-223.5 -104q6 -119 103 -119q77 0 135 73l23 -18q-34 -55 -81 -89.5 t-99 -34.5zM352 549l-23 -15q-20 24 -59.5 71t-59.5 71q-21 25 -21 51q0 15 11.5 25t26.5 10q31 0 51 -45q13 -28 37.5 -84t36.5 -84z" />
<glyph unicode="&#xe9;" horiz-adv-x="407" d="M293 444q-50 0 -106 -70.5t-63 -159.5q116 34 170.5 80t54.5 91q0 27 -15.5 43t-40.5 16zM205 -13q-69 0 -110 46.5t-41 139.5q0 122 78.5 218t182.5 96q49 0 74.5 -24t25.5 -68q0 -57 -67.5 -116t-223.5 -104q6 -119 103 -119q77 0 135 73l23 -18q-34 -55 -81 -89.5 t-99 -34.5zM312 549q50 112 74 168q21 43 51 43q17 0 28 -9t11 -26q0 -23 -22 -49q-20 -24 -59.5 -71t-59.5 -71z" />
<glyph unicode="&#xea;" horiz-adv-x="407" d="M293 444q-50 0 -106 -70.5t-63 -159.5q116 34 170.5 80t54.5 91q0 27 -15.5 43t-40.5 16zM205 -13q-69 0 -110 46.5t-41 139.5q0 122 78.5 218t182.5 96q49 0 74.5 -24t25.5 -68q0 -57 -67.5 -116t-223.5 -104q6 -119 103 -119q77 0 135 73l23 -18q-34 -55 -81 -89.5 t-99 -34.5zM443 546l-103 121l-138 -121l-20 21l156 176h32l100 -176z" />
<glyph unicode="&#xeb;" horiz-adv-x="407" d="M293 444q-50 0 -106 -70.5t-63 -159.5q116 34 170.5 80t54.5 91q0 27 -15.5 43t-40.5 16zM205 -13q-69 0 -110 46.5t-41 139.5q0 122 78.5 218t182.5 96q49 0 74.5 -24t25.5 -68q0 -57 -67.5 -116t-223.5 -104q6 -119 103 -119q77 0 135 73l23 -18q-34 -55 -81 -89.5 t-99 -34.5zM240 624q-19 0 -32.5 12.5t-13.5 33.5q0 25 16.5 41t39.5 16q19 0 32 -12.5t13 -31.5q0 -26 -16 -42.5t-39 -16.5zM433 624q-18 0 -31 12.5t-13 33.5q0 25 16.5 41t37.5 16q20 0 33 -12.5t13 -31.5q0 -26 -16 -42.5t-40 -16.5z" />
<glyph unicode="&#xec;" horiz-adv-x="305" d="M90 38q0 23 11 73l60 290l-99 6l4 29l170 51l13 -10l-71 -342q-9 -45 -9 -57q0 -10 6.5 -16t15.5 -6q36 0 96 72l25 -19q-43 -57 -81.5 -89.5t-86.5 -32.5q-22 0 -38 13.5t-16 37.5zM244 549l-23 -15q-20 24 -59.5 71t-59.5 71q-21 25 -21 51q0 15 11.5 25t26.5 10 q31 0 51 -45q13 -28 37.5 -84t36.5 -84z" />
<glyph unicode="&#xed;" horiz-adv-x="305" d="M90 38q0 23 11 73l60 290l-99 6l4 29l170 51l13 -10l-71 -342q-9 -45 -9 -57q0 -10 6.5 -16t15.5 -6q36 0 96 72l25 -19q-43 -57 -81.5 -89.5t-86.5 -32.5q-22 0 -38 13.5t-16 37.5zM222 549q50 112 74 168q21 43 51 43q17 0 28 -9t11 -26q0 -23 -22 -49 q-20 -24 -59.5 -71t-59.5 -71z" />
<glyph unicode="&#xee;" horiz-adv-x="305" d="M90 38q0 23 11 73l60 290l-99 6l4 29l170 51l13 -10l-71 -342q-9 -45 -9 -57q0 -10 6.5 -16t15.5 -6q36 0 96 72l25 -19q-43 -57 -81.5 -89.5t-86.5 -32.5q-22 0 -38 13.5t-16 37.5zM339 546l-103 121l-138 -121l-20 21l156 176h32l100 -176z" />
<glyph unicode="&#xef;" horiz-adv-x="305" d="M90 38q0 23 11 73l60 290l-99 6l4 29l170 51l13 -10l-71 -342q-9 -45 -9 -57q0 -10 6.5 -16t15.5 -6q36 0 96 72l25 -19q-43 -57 -81.5 -89.5t-86.5 -32.5q-22 0 -38 13.5t-16 37.5zM150 624q-19 0 -32.5 12.5t-13.5 33.5q0 25 16.5 41t39.5 16q19 0 32 -12.5t13 -31.5 q0 -26 -16 -42.5t-39 -16.5zM343 624q-18 0 -31 12.5t-13 33.5q0 25 16.5 41t37.5 16q20 0 33 -12.5t13 -31.5q0 -26 -16 -42.5t-40 -16.5z" />
<glyph unicode="&#xf0;" horiz-adv-x="488" d="M226 -13q-78 0 -125 50t-47 137q0 132 77.5 221t176.5 89q55 0 90 -35q-19 100 -73 167l-132 -72l-17 35l122 67q-35 35 -92 70l27 33q66 -33 111 -78l114 62l17 -35l-103 -56q106 -124 106 -306q0 -159 -75.5 -254t-176.5 -95zM233 27q70 0 119 80t49 202q0 132 -93 132 q-72 0 -122 -74t-50 -181q0 -159 97 -159z" />
<glyph unicode="&#xf1;" horiz-adv-x="563" d="M153 0l-67 -8l-10 8l85 401l-99 6l4 29l170 51l13 -10l-21 -103q52 50 108.5 81.5t100.5 31.5q64 0 64 -69q0 -32 -16 -98l-45 -185q-13 -52 -13 -58q0 -21 19 -21q41 0 99 72l24 -19q-33 -51 -79 -86.5t-94 -35.5q-23 0 -36.5 11.5t-13.5 31.5q0 15 16 81l43 176 q16 68 16 87q0 46 -35 46q-58 0 -166 -89l-27 -121q-11 -50 -40 -210zM196 586q11 63 40 95.5t68 32.5t74 -37q3 -3 10.5 -11.5t11 -12t11 -9.5t12.5 -8.5t12.5 -5t14.5 -2.5q21 0 39.5 21.5t27.5 62.5l25 -9q-12 -63 -40.5 -95.5t-67.5 -32.5q-41 0 -75 38q-15 17 -21.5 24 t-21 15.5t-29.5 8.5q-21 0 -39.5 -21.5t-27.5 -62.5z" />
<glyph unicode="&#xf2;" horiz-adv-x="488" d="M221 -13q-73 0 -120 46.5t-47 129.5q0 134 77 229t184 95q72 0 117 -46t45 -129q0 -131 -76 -228t-180 -97zM232 27q71 0 117.5 82.5t46.5 187.5q0 150 -92 150q-71 0 -119.5 -79.5t-48.5 -192.5q0 -75 26 -111.5t70 -36.5zM350 549l-23 -15q-20 24 -59.5 71t-59.5 71 q-21 25 -21 51q0 15 11.5 25t26.5 10q31 0 51 -45q13 -28 37.5 -84t36.5 -84z" />
<glyph unicode="&#xf3;" horiz-adv-x="488" d="M221 -13q-73 0 -120 46.5t-47 129.5q0 134 77 229t184 95q72 0 117 -46t45 -129q0 -131 -76 -228t-180 -97zM232 27q71 0 117.5 82.5t46.5 187.5q0 150 -92 150q-71 0 -119.5 -79.5t-48.5 -192.5q0 -75 26 -111.5t70 -36.5zM294 549q50 112 74 168q21 43 51 43 q17 0 28 -9t11 -26q0 -23 -22 -49q-20 -24 -59.5 -71t-59.5 -71z" />
<glyph unicode="&#xf4;" horiz-adv-x="488" d="M232 27q71 0 117.5 82.5t46.5 187.5q0 150 -92 150q-71 0 -119.5 -79.5t-48.5 -192.5q0 -75 26 -111.5t70 -36.5zM221 -13q-73 0 -120 46.5t-47 129.5q0 134 77 229t184 95q72 0 117 -46t45 -129q0 -131 -76 -228t-180 -97zM444 546l-103 121l-138 -121l-20 21l156 176 h32l100 -176z" />
<glyph unicode="&#xf5;" horiz-adv-x="488" d="M221 -13q-73 0 -120 46.5t-47 129.5q0 134 77 229t184 95q72 0 117 -46t45 -129q0 -131 -76 -228t-180 -97zM232 27q71 0 117.5 82.5t46.5 187.5q0 150 -92 150q-71 0 -119.5 -79.5t-48.5 -192.5q0 -75 26 -111.5t70 -36.5zM161 589q11 63 40 95.5t68 32.5t74 -37 q3 -3 10.5 -11.5t11 -12t11 -9.5t12.5 -8.5t12.5 -5t14.5 -2.5q21 0 39.5 21.5t27.5 62.5l25 -9q-12 -63 -40.5 -95.5t-67.5 -32.5q-41 0 -75 38q-15 17 -21.5 24t-21 15.5t-29.5 8.5q-21 0 -39.5 -21.5t-27.5 -62.5z" />
<glyph unicode="&#xf6;" horiz-adv-x="488" d="M221 -13q-73 0 -120 46.5t-47 129.5q0 134 77 229t184 95q72 0 117 -46t45 -129q0 -131 -76 -228t-180 -97zM232 27q71 0 117.5 82.5t46.5 187.5q0 150 -92 150q-71 0 -119.5 -79.5t-48.5 -192.5q0 -75 26 -111.5t70 -36.5zM241 624q-19 0 -32.5 12.5t-13.5 33.5 q0 25 16.5 41t39.5 16q19 0 32 -12.5t13 -31.5q0 -26 -16 -42.5t-39 -16.5zM434 624q-18 0 -31 12.5t-13 33.5q0 25 16.5 41t37.5 16q20 0 33 -12.5t13 -31.5q0 -26 -16 -42.5t-40 -16.5z" />
<glyph unicode="&#xf7;" horiz-adv-x="530" d="M281 72q-27 0 -45.5 17.5t-18.5 44.5q0 28 18.5 45t45.5 17t45.5 -17t18.5 -45q0 -27 -18.5 -44.5t-45.5 -17.5zM281 463q-27 0 -45.5 18t-18.5 45q0 28 18.5 45t45.5 17t45.5 -17t18.5 -45q0 -27 -18.5 -45t-45.5 -18zM503 303h-444v53h444v-53z" />
<glyph unicode="&#xf8;" horiz-adv-x="488" d="M523 475l-67 -67q21 -42 21 -96q0 -131 -76 -228t-180 -97q-85 0 -131 60l-68 -67l-29 25l77 76q-16 37 -16 82q0 134 77 229t184 95q75 0 119 -48l62 62zM132 175q0 -22 1 -32l252 249q-21 55 -81 55q-72 0 -122 -79.5t-50 -192.5zM232 27q72 0 119.5 82.5t47.5 187.5 q0 29 -3 52l-255 -251q20 -71 91 -71z" />
<glyph unicode="&#xf9;" horiz-adv-x="572" d="M412 -13q-22 0 -37.5 13.5t-15.5 38.5q0 23 8 62q-62 -57 -109.5 -85.5t-90.5 -28.5q-69 0 -69 73q0 24 21 126l46 216l-99 5l4 30l174 50l13 -10l-63 -283q-15 -68 -15 -95q0 -43 38 -43q30 0 64.5 19t94.5 67l27 133q26 128 36 192l65 20l13 -10l-71 -342 q-9 -45 -9 -57q0 -10 7 -16t16 -6q36 0 99 72l24 -19q-44 -57 -83.5 -89.5t-87.5 -32.5zM384 539l-23 -15q-20 24 -59.5 71t-59.5 71q-21 25 -21 51q0 15 11.5 25t26.5 10q31 0 51 -45q12 -28 37 -84t37 -84z" />
<glyph unicode="&#xfa;" horiz-adv-x="572" d="M412 -13q-22 0 -37.5 13.5t-15.5 38.5q0 23 8 62q-62 -57 -109.5 -85.5t-90.5 -28.5q-69 0 -69 73q0 24 21 126l46 216l-99 5l4 30l174 50l13 -10l-63 -283q-15 -68 -15 -95q0 -43 38 -43q30 0 64.5 19t94.5 67l27 133q26 128 36 192l65 20l13 -10l-71 -342 q-9 -45 -9 -57q0 -10 7 -16t16 -6q36 0 99 72l24 -19q-44 -57 -83.5 -89.5t-87.5 -32.5zM343 549q50 112 74 168q21 43 51 43q17 0 28 -9t11 -26q0 -23 -22 -49q-20 -24 -59.5 -71t-59.5 -71z" />
<glyph unicode="&#xfb;" horiz-adv-x="572" d="M412 -13q-22 0 -37.5 13.5t-15.5 38.5q0 23 8 62q-62 -57 -109.5 -85.5t-90.5 -28.5q-69 0 -69 73q0 24 21 126l46 216l-99 5l4 30l174 50l13 -10l-63 -283q-15 -68 -15 -95q0 -43 38 -43q30 0 64.5 19t94.5 67l27 133q26 128 36 192l65 20l13 -10l-71 -342 q-9 -45 -9 -57q0 -10 7 -16t16 -6q36 0 99 72l24 -19q-44 -57 -83.5 -89.5t-87.5 -32.5zM478 546l-103 121l-138 -121l-20 21l156 176h32l100 -176z" />
<glyph unicode="&#xfc;" horiz-adv-x="572" d="M412 -13q-22 0 -37.5 13.5t-15.5 38.5q0 23 8 62q-62 -57 -109.5 -85.5t-90.5 -28.5q-69 0 -69 73q0 24 21 126l46 216l-99 5l4 30l174 50l13 -10l-63 -283q-15 -68 -15 -95q0 -43 38 -43q30 0 64.5 19t94.5 67l27 133q26 128 36 192l65 20l13 -10l-71 -342 q-9 -45 -9 -57q0 -10 7 -16t16 -6q36 0 99 72l24 -19q-44 -57 -83.5 -89.5t-87.5 -32.5zM277 624q-19 0 -32.5 12.5t-13.5 33.5q0 25 16.5 41t39.5 16q19 0 32 -12.5t13 -31.5q0 -26 -16 -42.5t-39 -16.5zM470 624q-18 0 -31 12.5t-13 33.5q0 25 16.5 41t37.5 16 q20 0 33 -12.5t13 -31.5q0 -26 -16 -42.5t-40 -16.5z" />
<glyph unicode="&#xfd;" horiz-adv-x="476" d="M-82 -182q8 45 54 45q33 0 81 -35l3 -2q49 31 90 73q23 23 53 60q-4 61 -37 318q-11 92 -18 116.5t-21 24.5q-13 0 -27 -13.5t-40 -52.5l-23 16q56 119 127 119q31 0 46.5 -26.5t24.5 -106.5q16 -159 23 -311q55 99 84 165t53 149q24 84 39 110t37 26q17 0 27 -9.5 t10 -24.5q0 -31 -25 -81q-34 -70 -80 -152q-87 -154 -134 -226q-57 -85 -94 -126q-106 -114 -182 -114q-32 0 -50.5 16t-20.5 42zM312 539q50 112 74 168q21 43 51 43q17 0 28 -9t11 -26q0 -23 -22 -49q-20 -24 -59.5 -71t-59.5 -71z" />
<glyph unicode="&#xfe;" horiz-adv-x="505" d="M369 420q-63 0 -162 -104l-48 -233q38 -28 75 -28q72 0 131 76q65 86 65 193q0 96 -61 96zM197 -206l-7 -34h-254l7 34l86 14l139 668q20 102 32 178l-96 7l5 29l173 50l11 -8l-76 -368q46 57 100.5 90t98.5 33q40 0 65.5 -30t25.5 -93q0 -83 -46.5 -171.5t-119.5 -147 t-143 -58.5q-32 0 -57 15q-15 -69 -38 -193z" />
<glyph unicode="&#xff;" horiz-adv-x="476" d="M-82 -182q8 45 54 45q33 0 81 -35l3 -2q49 31 90 73q23 23 53 60q-4 61 -37 318q-11 92 -18 116.5t-21 24.5q-13 0 -27 -13.5t-40 -52.5l-23 16q56 119 127 119q31 0 46.5 -26.5t24.5 -106.5q16 -159 23 -311q55 99 84 165t53 149q24 84 39 110t37 26q17 0 27 -9.5 t10 -24.5q0 -31 -25 -81q-34 -70 -80 -152q-87 -154 -134 -226q-57 -85 -94 -126q-106 -114 -182 -114q-32 0 -50.5 16t-20.5 42zM261 624q-19 0 -32.5 12.5t-13.5 33.5q0 25 16.5 41t39.5 16q19 0 32 -12.5t13 -31.5q0 -26 -16 -42.5t-39 -16.5zM454 624q-18 0 -31 12.5 t-13 33.5q0 25 16.5 41t37.5 16q20 0 33 -12.5t13 -31.5q0 -26 -16 -42.5t-40 -16.5z" />
<glyph unicode="&#x152;" horiz-adv-x="889" d="M155 262q0 -112 50 -169.5t141 -57.5q32 0 64 6l60 319q31 171 46 268q-35 7 -65 7q-130 0 -213 -106t-83 -267zM444 0q-63 -15 -111 -15q-121 0 -194 72t-73 205q0 114 47.5 210.5t135 154.5t195.5 58q56 0 123 -15h327l-24 -178h-51l1 127h-217l-48 -254h155l34 96h42 l-45 -237h-42l3 95h-155l-2 -9q-23 -126 -45 -260h260l45 128h51l-39 -178h-373z" />
<glyph unicode="&#x153;" horiz-adv-x="743" d="M232 27q71 0 117.5 82.5t46.5 187.5q0 150 -92 150q-71 0 -119.5 -79.5t-48.5 -192.5q0 -75 26 -111.5t70 -36.5zM630 444q-50 0 -106 -70.5t-63 -159.5q116 34 170.5 80t54.5 91q0 27 -15.5 43t-40.5 16zM542 -13q-109 0 -140 105q-75 -105 -182 -105q-72 0 -119 46.5 t-47 129.5q0 134 77 229t184 95q52 0 90 -27.5t56 -78.5q81 106 191 106q49 0 74.5 -24t25.5 -68q0 -57 -67.5 -116t-223.5 -104q6 -119 103 -119q77 0 135 73l23 -18q-34 -55 -81 -89.5t-99 -34.5z" />
<glyph unicode="&#x178;" horiz-adv-x="554" d="M62 629l8 41h265l-8 -41l-88 -11l91 -289l186 287l-84 13l8 41h223l-8 -41l-90 -13l-222 -338q-20 -107 -39 -226l101 -12l-8 -40h-285l8 40l96 10l43 230l-117 339zM290 748q-19 0 -32.5 12.5t-13.5 32.5q0 25 17 41.5t39 16.5q19 0 32 -12.5t13 -31.5q0 -26 -16 -42.5 t-39 -16.5zM508 748q-17 0 -30 12.5t-13 32.5q0 25 16 41.5t38 16.5q20 0 33 -12.5t13 -31.5q0 -26 -16.5 -42.5t-40.5 -16.5z" />
<glyph unicode="&#x2c6;" horiz-adv-x="400" d="M409 546l-103 121l-138 -121l-20 21l156 176h32l100 -176z" />
<glyph unicode="&#x2dc;" horiz-adv-x="400" d="M111 586q11 63 40 95.5t68 32.5t74 -37q3 -3 10.5 -11.5t11 -12t11 -9.5t12.5 -8.5t12.5 -5t14.5 -2.5q21 0 39.5 21.5t27.5 62.5l25 -9q-12 -63 -40.5 -95.5t-67.5 -32.5q-41 0 -75 38q-15 17 -21.5 24t-21 15.5t-29.5 8.5q-21 0 -39.5 -21.5t-27.5 -62.5z" />
<glyph unicode="&#x2000;" horiz-adv-x="449" />
<glyph unicode="&#x2001;" horiz-adv-x="898" />
<glyph unicode="&#x2002;" horiz-adv-x="449" />
<glyph unicode="&#x2003;" horiz-adv-x="898" />
<glyph unicode="&#x2004;" horiz-adv-x="299" />
<glyph unicode="&#x2005;" horiz-adv-x="224" />
<glyph unicode="&#x2006;" horiz-adv-x="149" />
<glyph unicode="&#x2007;" horiz-adv-x="149" />
<glyph unicode="&#x2008;" horiz-adv-x="112" />
<glyph unicode="&#x2009;" horiz-adv-x="179" />
<glyph unicode="&#x200a;" horiz-adv-x="49" />
<glyph unicode="&#x2010;" horiz-adv-x="311" d="M56 219v64h231v-64h-231z" />
<glyph unicode="&#x2011;" horiz-adv-x="311" d="M56 219v64h231v-64h-231z" />
<glyph unicode="&#x2012;" horiz-adv-x="311" d="M56 219v64h231v-64h-231z" />
<glyph unicode="&#x2013;" d="M56 219v64h431v-64h-431z" />
<glyph unicode="&#x2014;" horiz-adv-x="811" d="M56 219v64h731v-64h-731z" />
<glyph unicode="&#x2018;" horiz-adv-x="275" d="M209 476q-32 0 -54 21q-5 17 -5 36q0 126 155 226l20 -29q-66 -52 -104 -108l18 -25q25 -35 25 -56q0 -31 -16 -48t-39 -17z" />
<glyph unicode="&#x2019;" horiz-adv-x="275" d="M246 717q32 0 54 -21q5 -17 5 -36q0 -126 -155 -226l-20 29q66 52 104 108l-18 25q-25 35 -25 56q0 31 16 48t39 17z" />
<glyph unicode="&#x201a;" horiz-adv-x="295" d="M128 116q32 0 54 -21q5 -17 5 -36q0 -126 -155 -226l-20 29q66 52 104 108l-18 25q-25 35 -25 56q0 31 16 48t39 17z" />
<glyph unicode="&#x201c;" horiz-adv-x="475" d="M209 476q-32 0 -54 21q-5 17 -5 36q0 126 155 226l20 -29q-66 -52 -104 -108l18 -25q25 -35 25 -56q0 -31 -16 -48t-39 -17zM409 476q-32 0 -54 21q-5 17 -5 36q0 126 155 226l20 -29q-66 -52 -104 -108l18 -25q25 -35 25 -56q0 -31 -16 -48t-39 -17z" />
<glyph unicode="&#x201d;" horiz-adv-x="475" d="M446 717q32 0 54 -21q5 -17 5 -36q0 -126 -155 -226l-20 29q66 52 104 108l-18 25q-25 35 -25 56q0 31 16 48t39 17zM246 717q32 0 54 -21q5 -17 5 -36q0 -126 -155 -226l-20 29q66 52 104 108l-18 25q-25 35 -25 56q0 31 16 48t39 17z" />
<glyph unicode="&#x201e;" horiz-adv-x="495" d="M328 116q32 0 54 -21q5 -17 5 -36q0 -126 -155 -226l-20 29q66 52 104 108l-18 25q-25 35 -25 56q0 31 16 48t39 17zM128 116q32 0 54 -21q5 -17 5 -36q0 -126 -155 -226l-20 29q66 52 104 108l-18 25q-25 35 -25 56q0 31 16 48t39 17z" />
<glyph unicode="&#x2022;" horiz-adv-x="296" d="M173 242q-40 0 -65.5 24.5t-25.5 64.5q0 48 33.5 81t75.5 33q39 0 65 -24.5t26 -63.5q0 -50 -33.5 -82.5t-75.5 -32.5z" />
<glyph unicode="&#x2026;" horiz-adv-x="901" d="M122 -10q-26 0 -42.5 16t-16.5 41q0 29 21 49t50 20q26 0 42 -16.5t16 -40.5q0 -30 -20 -49.5t-50 -19.5zM422 -10q-26 0 -42.5 16t-16.5 41q0 29 21 49t50 20q26 0 42 -16.5t16 -40.5q0 -30 -20 -49.5t-50 -19.5zM723 -10q-26 0 -42.5 16t-16.5 41q0 29 21 49t50 20 q26 0 42 -16.5t16 -40.5q0 -30 -20 -49.5t-50 -19.5z" />
<glyph unicode="&#x202f;" horiz-adv-x="179" />
<glyph unicode="&#x2039;" horiz-adv-x="350" d="M251 50l-177 176l9 53l226 176l22 -31l-184 -171l132 -175z" />
<glyph unicode="&#x203a;" horiz-adv-x="350" d="M132 455l177 -176l-9 -53l-226 -176l-22 31l184 171l-132 175z" />
<glyph unicode="&#x205f;" horiz-adv-x="224" />
<glyph unicode="&#x20ac;" d="M307 -15q-106 0 -162 67.5t-60 181.5h-65l10 50h56q3 43 12 82h-52l10 50h56q38 110 118.5 176t175.5 66q65 0 105.5 -38t44.5 -107q-4 -20 -16.5 -31.5t-28.5 -11.5q-25 0 -34.5 14t-12.5 52l-5 69q-27 7 -52 7q-66 0 -124 -53.5t-90 -142.5h235l-10 -50h-240 q-10 -37 -13 -82h237l-10 -50h-229q1 -100 42.5 -152t114.5 -52q9 0 29 2l33 63q17 34 29.5 46t33.5 12q30 0 41 -34q-12 -62 -63 -98t-116 -36z" />
<glyph unicode="&#x2122;" horiz-adv-x="740" d="M110 587l16 83h264l-15 -83h-36l2 58h-54l-44 -241l42 -4l-5 -24h-152l5 24l43 4l44 241h-54l-20 -58h-36zM355 376l5 24l45 6l56 237l-36 3l5 24h98l46 -211l123 211h104l-4 -24l-40 -4l-34 -238l38 -4l-4 -24h-143l4 24l38 4l29 194l-131 -222h-25l-52 223l-44 -194 l40 -5l-4 -24h-114z" />
<glyph unicode="&#x25fc;" horiz-adv-x="485" d="M0 485h485v-485h-485v485z" />
</font>
</defs>
</svg>
